<?xml version="1.0" encoding="UTF-8" standalone="no"?>
<svg
        xmlns:dc="http://purl.org/dc/elements/1.1/"
        xmlns:cc="http://creativecommons.org/ns#"
        xmlns:rdf="http://www.w3.org/1999/02/22-rdf-syntax-ns#"
        xmlns="http://www.w3.org/2000/svg"
        id="svg8"
        version="1.1"
        viewBox="0 0 171.81372 174.96132"
        height="174.96132mm"
        width="171.81372mm">
    <defs
            id="defs2"/>
    <metadata
            id="metadata5">
        <rdf:RDF>
            <cc:Work
                    rdf:about="">
                <dc:format>image/svg+xml</dc:format>
                <dc:type
                        rdf:resource="http://purl.org/dc/dcmitype/StillImage"/>
                <dc:title></dc:title>
            </cc:Work>
        </rdf:RDF>
    </metadata>
    <g
            transform="translate(-13.401284,-34.669133)"
            id="layer1">
        <path
                id="path4496"
                d="m 119.27528,150.7156 v -1.4012 l -5.18194,-5.71086 -5.18194,-5.71086 -0.87325,0.26801 c -2.63597,0.809 -5.41439,-1.4215 -5.47407,-4.39456 -0.0291,-1.45029 0.20611,-2.20255 1.03408,-3.30709 1.23575,-1.64854 3.5324,-2.09087 5.40156,-1.04034 1.58413,0.89033 2.20577,2.09189 2.20577,4.26348 v 1.80599 l 5.58162,6.15971 c 3.06988,3.38784 5.65787,6.44467 5.75107,6.79296 0.0932,0.34829 0.17109,1.31786 0.17307,2.15461 l 0.004,1.52135 h -1.7198 -1.71979 z m -10.97211,-15.88856 c 0.8879,-1.26766 0.0248,-3.34774 -1.38916,-3.34774 -0.8675,0 -1.92818,1.12743 -1.91781,2.0385 0.0211,1.8536 2.29509,2.75389 3.30697,1.30924 z m 23.40753,11.46893 v -5.82084 h -2.20425 c -2.09981,0 -2.2216,0.0324 -2.57033,0.68403 -0.40934,0.76486 -1.51986,1.43264 -2.38249,1.43264 -0.87831,0 -2.36793,-1.63997 -2.36793,-2.60693 0,-1.19079 0.48273,-2.04724 1.44645,-2.56623 1.084,-0.58377 2.08698,-0.35724 3.06799,0.69293 l 0.72968,0.78113 12.92221,-0.0687 12.92221,-0.0687 v -1.05833 -1.05833 l -16.93333,-0.1323 -16.93334,-0.13229 v -2.51354 -2.51354 l 17.0146,-0.0681 17.0146,-0.0681 -0.0813,-1.12253 -0.0813,-1.12253 -18.12396,-0.0663 c -16.66539,-0.0609 -18.15057,-0.10227 -18.45469,-0.51359 -0.47843,-0.6471 -0.42335,-3.53578 0.0812,-4.25606 0.26867,-0.38358 0.30557,-0.58804 0.10613,-0.58804 -0.69165,0 -2.0522,-0.86317 -2.33343,-1.48041 -0.55137,-1.21013 -0.37308,-2.45721 0.47216,-3.30244 1.14624,-1.14624 2.94817,-0.93239 3.8592,0.458 l 0.40668,0.62068 h 17.40348 c 13.18327,0 17.48048,0.077 17.72099,0.3175 0.42664,0.42665 0.42664,4.49461 0,4.92125 -0.24075,0.24075 -4.68607,0.3175 -18.38854,0.3175 h -18.07105 v 0.92423 0.92423 l 18.3224,0.068 18.3224,0.068 0.0763,2.62397 c 0.0515,1.77203 -0.0228,2.68521 -0.22899,2.81262 -0.16788,0.10375 -7.77881,0.12571 -16.91317,0.0488 l -16.60792,-0.13986 -0.1804,0.56839 c -0.0992,0.31261 -0.1051,0.80564 -0.0131,1.0956 0.16451,0.51835 0.45085,0.52836 17.01731,0.59532 l 16.84998,0.0681 0.13229,1.88352 c 0.0728,1.03594 0.0716,2.22656 -0.003,2.64583 l -0.13472,0.76231 -9.85319,0.0694 -9.85319,0.0694 v 5.81762 5.81761 h -1.5875 -1.5875 z m -6.36209,-5.67398 c 0.74638,-0.89933 -0.29066,-2.47123 -1.15636,-1.75276 -0.55816,0.46323 -0.5332,1.51313 0.044,1.84929 0.62026,0.36127 0.74116,0.35078 1.11239,-0.0965 z m 27.79334,-18.00623 v -1.19063 h -16.81164 -16.81164 l -1.04774,1.1014 c -0.57625,0.60577 -1.04773,1.14155 -1.04773,1.19063 0,0.0491 8.03672,0.0892 17.85937,0.0892 h 17.85938 z m -35.45417,-1.829 c 0,-0.83913 -0.69585,-1.40446 -1.27895,-1.03905 -0.62458,0.3914 -0.7185,1.44593 -0.16483,1.85079 0.62452,0.45666 1.44378,-0.004 1.44378,-0.81174 z m -39.555206,8.58568 c -0.47341,-0.19793 -2.19693,-1.99139 -6.4323,-6.69334 l -1.37291,-1.52415 v -2.51074 -2.51074 h -1.4105 c -1.21734,0 -1.45695,0.0868 -1.74971,0.63382 -1.26568,2.36494 -5.13274,2.66708 -6.83472,0.53401 l -0.72069,-0.90323 -5.73307,-1e-5 -5.73307,-1e-5 -5.64402,-6.15478 c -3.1042,-3.38513 -6.09049,-6.6597 -6.6362,-7.2768 l -0.99219,-1.12203 V 90.921655 79.998865 l 3.73516,-4.04091 3.73515,-4.0409 0.0851,-1.42678 c 0.0468,-0.78473 0.22632,-1.7005 0.39895,-2.03503 1.88157,-3.64618 6.44844,-3.43088 8.04033,0.37906 0.53913,1.2903 0.50911,2.47194 -0.0967,3.80591 -0.9868,2.17301 -3.67381,3.33587 -5.51185,2.38538 l -0.81405,-0.42096 -1.69378,1.78056 c -0.93157,0.97931 -2.3736,2.50851 -3.20451,3.39824 l -1.51073,1.61768 0.0721,4.9969 0.0721,4.9969 4.66436,0.0721 4.66437,0.0721 0.11962,-0.62572 c 0.0658,-0.34414 0.14582,-2.2816 0.17785,-4.30545 l 0.0582,-3.67973 2.79237,-2.81036 c 2.50738,-2.52353 2.8166,-2.94002 3.02973,-4.08087 0.38942,-2.08447 1.65982,-3.03582 3.32158,-2.48739 1.78358,0.58864 2.27511,3.13276 0.87564,4.53222 -0.80195,0.80195 -1.69459,0.91911 -2.91218,0.38225 -0.28756,-0.1268 -1.19845,0.62579 -3.1163,2.57473 l -2.70998,2.75389 0.0736,3.8011 0.0736,3.80109 5.21585,0.0717 5.21585,0.0717 0.40929,-0.79147 c 0.50185,-0.97047 1.14446,-1.33632 2.34726,-1.33632 2.25111,0 3.13907,3.50557 1.25447,4.95252 -0.23089,0.17727 -0.87805,0.3261 -1.43813,0.33073 -0.79735,0.007 -1.17983,-0.16448 -1.76259,-0.78832 l -0.74426,-0.79674 -10.80512,0.0691 -10.80512,0.0691 -0.0736,3.63257 -0.0736,3.632575 5.71234,6.22315 c 4.45886,4.85759 5.8539,6.22317 6.35743,6.22317 h 0.64509 v -4.41918 -4.41919 l -0.85989,-0.88718 c -0.71283,-0.73545 -0.8599,-1.09202 -0.8599,-2.08481 0,-1.01838 0.12933,-1.313195 0.86407,-1.969685 1.48767,-1.32923 3.37687,-0.76885 4.0246,1.193775 0.35294,1.06942 -0.1395,2.55267 -1.03268,3.11047 -0.52078,0.32523 -0.5487,0.57502 -0.5487,4.90923 v 4.56657 l 3.37344,-0.004 3.37344,-0.004 0.73713,-1.33631 c 1.46902,-2.66311 4.76781,-3.12527 6.77415,-0.94905 0.34766,0.37711 0.7679,0.958 0.93386,1.29087 0.24694,0.49534 0.51651,0.60524 1.48455,0.60524 h 1.18281 l 0.13229,-7.15985 0.13229,-7.159835 0.74306,-0.88247 c 0.62834,-0.74624 15.74143,-16.8412 17.99463,-19.16371 l 0.74602,-0.76897 9.255847,0.13944 9.255849,0.13944 3.04587,-3.32863 c 2.43037,-2.656 3.01125,-3.43823 2.87452,-3.87099 -0.0942,-0.29829 -0.23397,-1.14665 -0.31052,-1.88524 -0.38441,-3.70891 3.66484,-6.36462 6.61849,-4.34075 1.51013,1.03476 2.11085,2.36206 1.98235,4.38008 -0.16918,2.65688 -1.79614,4.34626 -4.18568,4.34626 h -1.2461 l -3.10694,3.4384 c -1.70881,1.89111 -3.45805,3.73384 -3.88719,4.09494 l -0.78027,0.65655 -9.18121,-0.14783 -9.181226,-0.14783 -6.61458,7.0628 c -3.63802,3.88454 -7.56362,8.07936 -8.72356,9.32182 l -2.10898,2.25902 -0.10489,10.091475 -0.1049,10.09146 2.97574,3.23023 2.97573,3.23022 h 10.78856 10.788556 l 5.88748,-6.35 5.88748,-6.35 h 11.73241 11.73241 v -1.82165 c 0,-1.63315 -0.066,-1.8649 -0.63784,-2.23959 -1.39493,-0.91399 -1.44008,-3.58201 -0.0768,-4.53691 0.69597,-0.48747 2.27149,-0.50458 2.89464,-0.0314 0.6576,0.4993 1.2346,2.02639 1.07705,2.85053 -0.0739,0.38672 -0.47981,1.03404 -0.90198,1.4385 -0.69997,0.67062 -0.76758,0.89414 -0.76758,2.53797 v 1.80258 l 5.6224,-0.002 5.6224,-0.002 4.89479,-5.45315 c 2.69213,-2.99924 4.98657,-5.6117 5.09875,-5.80549 0.11218,-0.19378 0.12405,-1.66813 0.0264,-3.276355 l -0.1776,-2.92381 -6.64095,-0.0488 c -3.65253,-0.0269 -6.87908,-0.0747 -7.17012,-0.10622 -0.29105,-0.0316 -0.91612,-0.0691 -1.38907,-0.0834 l -0.85989,-0.0261 v -2.86983 -2.86983 l -0.92604,-0.95351 c -0.75385,-0.77622 -0.92605,-1.15598 -0.92605,-2.04236 0,-1.36362 0.3332,-1.99746 1.31762,-2.50653 1.16929,-0.60466 1.82126,-0.48865 2.80988,0.49997 1.34451,1.34451 1.14489,3.16429 -0.47618,4.34094 -0.39259,0.28496 -0.47632,0.73128 -0.47632,2.53903 v 2.1933 l 3.21654,0.17295 c 1.7691,0.0951 5.10285,0.17295 7.40834,0.17295 h 4.19179 v -6.24207 -6.24207 l -3.50573,-3.75263 c -1.92815,-2.06394 -7.35744,-7.88824 -12.0651,-12.94287 l -8.55937,-9.19025 -12.07813,0.0688 -12.07813,0.0688 -0.0775,2.22462 c -0.0767,2.20064 -0.0681,2.23432 0.79375,3.12355 0.72459,0.74759 0.87127,1.10055 0.87127,2.09656 0,1.01837 -0.12933,1.31319 -0.86407,1.96968 -1.01125,0.90356 -1.7255,0.9657 -2.89606,0.25197 -1.57394,-0.95968 -1.6096,-3.22724 -0.0713,-4.53571 0.80064,-0.68104 0.81034,-0.71952 0.73391,-2.91042 l -0.0774,-2.22025 -0.84218,-0.0816 c -0.68852,-0.0667 -1.00845,0.0998 -1.75348,0.91281 -0.72959,0.79611 -1.10099,0.9944 -1.86257,0.9944 -2.4698,0 -3.44406,-3.61246 -1.34515,-4.98772 1.0761,-0.70509 2.1943,-0.52325 3.17469,0.51626 l 0.87337,0.92605 h 12.85006 c 7.06753,0 12.85005,-0.0737 12.85005,-0.16386 0,-0.0901 -1.06878,-1.32306 -2.37508,-2.73988 l -2.37509,-2.57602 -1.29184,0.12413 c -3.09611,0.2975 -5.32741,-2.49715 -4.69315,-5.87806 0.21602,-1.1515 1.554,-2.73879 2.71889,-3.22551 1.95173,-0.81549 4.12221,-0.0366 5.24717,1.88302 0.64862,1.10679 0.70804,1.4157 0.58991,3.06681 l -0.13137,1.83605 2.51944,2.71218 c 1.38569,1.4917 3.25035,3.48608 4.14368,4.43197 0.89334,0.94589 4.94529,5.29167 9.00434,9.65729 4.05904,4.36563 8.82612,9.48532 10.59351,11.37709 1.76738,1.89177 3.63287,3.91583 4.14553,4.49791 l 0.93211,1.05834 0.18098,11.39403 0.18098,11.394045 -0.59727,0.7768 c -0.78632,1.02267 -10.45813,11.75544 -11.13127,12.35232 -0.48645,0.43134 -1.75737,0.46302 -18.57966,0.46302 h -18.05749 l -5.73832,6.19424 c -3.15607,3.40683 -5.92097,6.26433 -6.14421,6.35 -0.63403,0.2433 -23.448796,0.14933 -24.042826,-0.099 z m -13.41135,-13.77845 c 0.706,-0.65774 0.78172,-2.23762 0.14118,-2.94542 -0.68022,-0.75163 -2.05341,-0.6315 -2.7386,0.23958 -1.43993,1.83057 0.90965,4.27824 2.59742,2.70584 z m 73.064346,-7.78219 c 0.70285,-0.84688 -0.32947,-2.14783 -1.24623,-1.5705 -0.91607,0.5769 -0.58971,1.95467 0.46302,1.95467 0.25541,0 0.60785,-0.17288 0.78321,-0.38417 z m -85.601066,-5.85244 c 0.22868,-0.22868 0.41578,-0.57736 0.41578,-0.77485 0,-0.39844 -0.70417,-1.190635 -1.05834,-1.190635 -0.35416,0 -1.05833,0.792195 -1.05833,1.190635 0,0.39844 0.70417,1.19062 1.05833,1.19062 0.12474,0 0.41389,-0.1871 0.64256,-0.41577 z m 10.99911,-9.373815 c 0.57165,-1.06814 -0.69126,-2.11332 -1.53458,-1.27 -0.66457,0.66457 -0.16989,1.79917 0.78444,1.79917 0.25682,0 0.59438,-0.23813 0.75014,-0.52917 z m 80.909586,-4.81542 c 0.4899,-0.4899 0.37602,-1.48464 -0.2056,-1.79592 -0.41641,-0.22285 -0.63425,-0.16881 -1.06799,0.26493 -0.29968,0.29968 -0.46247,0.68936 -0.36174,0.86595 0.5933,1.04018 1.06739,1.23298 1.63533,0.66504 z M 57.019834,76.531495 c 0.34374,-0.51859 0.32653,-0.63112 -0.17289,-1.13054 -0.44245,-0.44245 -0.66042,-0.498 -1.07773,-0.27467 -0.58548,0.31334 -0.6945,1.30702 -0.19788,1.80365 0.44303,0.44302 0.99059,0.29241 1.4485,-0.39844 z m -8.83807,-4.65212 c 1.12409,-1.30247 -0.16165,-3.67326 -1.77281,-3.26889 -1.62448,0.40772 -1.94802,2.92581 -0.47786,3.71916 0.84838,0.45783 1.59604,0.30825 2.25067,-0.45027 z m 71.327996,-1.98185 c 1.38099,-1.14659 0.64564,-3.50573 -1.09274,-3.50573 -1.15931,0 -1.78757,0.66534 -1.78757,1.89309 0,1.78367 1.59722,2.67793 2.88031,1.61264 z m -9.11692,-5.50901 c 0.84469,-0.84468 0.20324,-2.1856 -0.88091,-1.84151 -0.75731,0.24037 -0.9641,1.13033 -0.40595,1.74708 0.55973,0.61849 0.74892,0.63238 1.28686,0.0944 z m -4.88615,-8.56089 c 0.15012,-0.2805 0.20284,-0.69268 0.11716,-0.91597 -0.21599,-0.56287 -1.11232,-0.7994 -1.57481,-0.41557 -0.39451,0.32741 -0.52221,1.35073 -0.20779,1.66515 0.36498,0.36498 1.40283,0.15708 1.66544,-0.33361 z m 21.95178,-9.53405 c 0.78499,-0.42012 1.19729,-1.72733 0.82686,-2.62162 -0.82333,-1.98769 -3.4538,-1.39269 -3.4538,0.78123 0,1.51188 1.40351,2.49515 2.62694,1.84039 z M 90.902894,122.24059 c -0.74184,-0.66284 -0.86407,-0.94661 -0.86407,-2.00608 0,-1.05825 0.12249,-1.34348 0.8599,-2.00235 l 0.85989,-0.76832 v -3.44331 -3.44331 h -2.89258 c -2.64748,0 -2.90664,0.0443 -3.05835,0.52226 -0.44179,1.39195 -2.60811,2.04361 -3.74154,1.1255 -1.65178,-1.33799 -1.42122,-3.73211 0.45273,-4.70117 1.00759,-0.52104 2.42991,-0.13638 3.06183,0.82806 0.39922,0.60928 0.54666,0.63785 3.29221,0.63785 h 2.87427 l 0.0719,-5.09323 0.0719,-5.093235 13.913376,-0.0685 13.91336,-0.0685 1.55226,-1.65133 c 9.25652,-9.84733 8.58871,-9.02812 8.58871,-10.53614 0,-1.13087 0.12185,-1.46419 0.7734,-2.11575 1.25329,-1.25328 3.0562,-0.9987 3.85407,0.54422 0.61783,1.19475 0.50104,2.2647 -0.35135,3.21868 -0.64688,0.72399 -0.92139,0.8379 -1.98064,0.82189 l -1.22968,-0.0186 -4.30321,4.63524 c -2.36676,2.54938 -4.3429,4.74126 -4.3914,4.87083 -0.0488,0.1303 1.47591,0.23558 3.41154,0.23558 h 3.49974 l 0.84624,-0.97895 c 0.6979,-0.80735 1.02176,-0.97896 1.8475,-0.97896 0.80136,0 1.15905,0.1766 1.79162,0.88457 0.69806,0.78126 0.77444,1.02591 0.65397,2.09471 -0.27532,2.442585 -2.63816,3.261275 -4.30664,1.492175 l -0.87337,-0.92603 h -11.13027 -11.13026 v 5.31781 5.31781 l 0.77859,0.72731 c 1.33113,1.24347 1.39053,2.89617 0.14871,4.13799 -1.50044,1.50044 -4.1023,0.24616 -4.1023,-1.9776 0,-0.81103 0.19182,-1.28795 0.79374,-1.97352 l 0.79376,-0.90403 v -5.32288 -5.32288 h -5.953129 -5.953127 v 8.62702 8.62703 l 0.65235,0.51313 c 0.74236,0.58395 1.20234,1.94363 1.00564,2.97263 -0.17777,0.92992 -1.50634,2.01435 -2.46786,2.01435 -0.47615,0 -1.09853,-0.29418 -1.63335,-0.77204 z m 2.29203,-1.23123 c 0.54679,-0.54679 0.52504,-0.99083 -0.0751,-1.53397 -0.91754,-0.83036 -1.97929,0.26562 -1.36653,1.41058 0.34533,0.64525 0.87451,0.69054 1.44166,0.12339 z m 13.632856,-6.58112 c 0.17451,-0.21027 0.27838,-0.65676 0.23083,-0.99219 -0.11913,-0.84036 -1.3843,-1.00142 -1.79776,-0.22886 -0.59846,1.11824 0.76831,2.18332 1.56693,1.22105 z m -22.432926,-3.97548 c 0.36988,-0.81181 -0.0743,-1.46304 -0.99797,-1.46304 -0.44582,0 -0.67168,0.18987 -0.7909,0.66489 -0.33549,1.3367 1.22605,2.03341 1.78887,0.79815 z m 48.097506,-10.31202 c 0.17451,-0.210275 0.27839,-0.656765 0.23084,-0.992195 -0.0683,-0.48204 -0.25284,-0.60988 -0.88021,-0.60988 -0.62737,0 -0.81187,0.12784 -0.88021,0.60988 -0.0947,0.66823 0.35755,1.374505 0.88021,1.374505 0.18264,0 0.47486,-0.17204 0.64937,-0.38231 z m 0.75307,-13.663265 c 0.0966,-0.83105 -0.52025,-1.40598 -1.25745,-1.172 -0.37404,0.11871 -0.54187,0.39863 -0.54187,0.9038 0,0.92407 0.20807,1.1286 1.04844,1.0306 0.4996,-0.0583 0.6917,-0.25331 0.75088,-0.7624 z M 77.676204,118.36687 c -0.93767,-0.50886 -1.26342,-1.15369 -1.26342,-2.50095 0,-0.86508 0.16728,-1.26335 0.79375,-1.88983 l 0.79375,-0.79375 v -5.70225 -5.70227 l 2.3081,-2.413325 c 1.26945,-1.32733 3.44202,-3.5761 4.82792,-4.99728 l 2.51984,-2.58395 12.253757,0.0139 12.253749,0.0139 1.79096,-1.92784 c 0.98503,-1.06029 3.71655,-4.01141 6.07004,-6.55803 l 4.27907,-4.63021 5.8863,-0.13229 5.8863,-0.13229 0.0804,-1.40187 c 0.0726,-1.26632 0.004,-1.47348 -0.71245,-2.14252 -0.43608,-0.40736 -0.87213,-1.05644 -0.96899,-1.4424 -0.66316,-2.64224 2.52339,-4.55381 4.22334,-2.53353 0.98761,1.1737 0.94703,2.66876 -0.10088,3.71667 -0.70446,0.70446 -0.80724,1.02439 -0.99219,3.08851 l -0.20633,2.30264 -6.14117,0.071 -6.14117,0.071 -5.19684,5.61755 c -2.85827,3.08965 -5.70355,6.11415 -6.32286,6.72111 l -1.12601,1.10356 -12.14223,-0.14829 -12.142216,-0.14829 -1.42741,1.55827 c -0.78508,0.85705 -2.71984,2.8885 -4.29948,4.51434 l -2.87207,2.956065 v 5.55892 c 0,5.2326 0.0296,5.5683 0.50363,5.71876 0.54115,0.17175 1.34908,1.62838 1.34746,2.42934 -0.002,0.77865 -0.99554,2.19857 -1.73615,2.48015 -0.88512,0.33653 -1.16048,0.31554 -2.02652,-0.15444 z m 2.08046,-2.15269 c 0.34118,-1.35937 -1.48482,-1.8823 -1.90875,-0.54662 -0.12879,0.40578 -0.017,0.69692 0.39627,1.03153 0.7069,0.57241 1.29438,0.38406 1.51248,-0.48491 z M 137.79611,73.270955 c 0.57166,-1.06814 -0.69126,-2.11331 -1.53458,-1.27 -0.66457,0.66458 -0.16988,1.79917 0.78444,1.79917 0.25682,0 0.59438,-0.23812 0.75014,-0.52917 z m -65.322956,16.03494 c -0.81939,-0.45415 -1.3309,-1.39678 -1.34266,-2.47428 -0.007,-0.61973 0.25085,-1.14718 0.92452,-1.89285 l 0.9339,-1.03371 -0.074,-3.53111 -0.074,-3.53111 -3.495,-0.0738 -3.49501,-0.0737 -0.38776,0.74984 c -0.78098,1.51026 -2.68729,1.80872 -3.88738,0.60864 -0.61799,-0.61799 -0.77339,-1.0049 -0.77339,-1.92551 0,-1.41533 0.51325,-2.19457 1.70441,-2.58769 0.73805,-0.24358 1.05988,-0.22199 1.71112,0.11479 0.44117,0.22813 0.92889,0.65167 1.08385,0.94121 0.26187,0.48932 0.55935,0.52643 4.21973,0.52643 h 3.93799 l 3.29481,-3.50573 c 1.81214,-1.92815 3.66039,-3.93035 4.10723,-4.44932 l 0.81242,-0.94359 0.0814,-5.57004 0.0814,-5.57003 3.40133,-3.60669 3.40132,-3.60669 h 4.9992 4.999187 v -3.57593 -3.57593 l -7.606767,0.0702 -7.60677,0.0702 -0.0762,1.99266 -0.0762,1.99266 -4.3495,4.62192 -4.3495,4.62192 -0.006,2.848 -0.006,2.848 0.8599,0.76832 c 0.73741,0.65887 0.85989,0.9441 0.85989,2.00235 0,1.06851 -0.12021,1.34144 -0.89621,2.0348 -0.74768,0.66805 -1.04913,0.77596 -1.81876,0.65107 -1.1406,-0.1851 -1.80843,-0.76682 -2.18289,-1.90142 -0.34331,-1.04025 0.16106,-2.53254 1.04187,-3.08261 0.50619,-0.31613 0.54869,-0.59114 0.54869,-3.55082 v -3.20814 l 2.8325,-3.01207 c 1.55788,-1.65663 3.58804,-3.81047 4.51147,-4.7863 l 1.67897,-1.77425 -0.0797,-1.53305 -0.0797,-1.53304 -5.42396,-0.0671 -5.42396,-0.0671 -7.0776,7.59365 c -6.89562,7.39839 -7.07761,7.62179 -7.07761,8.68797 0,0.9633 0.13009,1.19886 1.0865,1.96746 1.27784,1.0269 1.82392,2.17827 1.82392,3.84563 0,1.56296 -0.51372,2.76005 -1.56355,3.64342 -2.28575,1.92333 -5.4312,1.21272 -6.66596,-1.50595 -0.94356,-2.07751 -0.3511,-4.75784 1.3257,-5.99755 0.78653,-0.58151 0.81839,-0.68126 0.81839,-2.56258 v -1.95752 l 1.53856,-1.63074 c 0.84621,-0.89691 4.19541,-4.48825 7.44266,-7.98074 3.24726,-3.49251 6.21608,-6.6173 6.59738,-6.944 l 0.69328,-0.594 20.93682,-0.001 20.936826,-10e-4 0.67793,-0.88881 c 1.98352,-2.60054 6.01677,-2.19963 7.3474,0.73034 1.20928,2.66276 0.0552,5.79473 -2.48964,6.75622 -1.82655,0.69012 -3.88759,-0.11019 -5.05985,-1.96475 l -0.75435,-1.1934 h -5.65017 -5.65018 v 4.04812 c 0,2.79576 -0.0982,4.14635 -0.317499,4.36562 -0.22541,0.22541 -1.8261,0.3175 -5.518717,0.3175 h -5.20121 l -2.94795,3.21645 -2.94795,3.21645 v 4.85334 4.85335 h 7.01145 c 4.70115,0 7.01147,-0.0911 7.01147,-0.27661 0,-0.15214 0.29224,-0.56886 0.64943,-0.92604 0.980787,-0.9808 2.526756,-0.90656 3.428086,0.16462 2.17766,2.58799 -1.24891,6.14543 -3.548356,3.68386 l -0.74147,-0.79375 h -7.13983 -7.13982 l -3.27121,3.50414 c -1.79917,1.92727 -3.71641,3.9811 -4.26055,4.56406 l -0.98933,1.05993 -0.003,3.75111 c -0.003,3.61983 0.0188,3.76816 0.61658,4.23836 2.69216,2.11765 0.50054,6.36932 -2.4424,4.73817 z m 1.77004,-1.53577 c 0.83876,-0.83875 -0.0484,-2.31136 -1.06473,-1.76742 -0.80989,0.43344 -0.44854,2.08492 0.45619,2.08492 0.16008,0 0.43392,-0.14287 0.60854,-0.3175 z m -10.26868,-10.92385 c 0.51715,-0.62313 0.11416,-1.72323 -0.63125,-1.72323 -0.92364,0 -1.36786,0.65124 -0.99797,1.46304 0.33321,0.73131 1.13231,0.85893 1.62922,0.26019 z m 36.515346,-9.92532 c 0.57166,-1.06814 -0.691259,-2.11331 -1.534579,-1.27 -0.66457,0.66458 -0.16988,1.79917 0.78444,1.79917 0.256819,0 0.594379,-0.23812 0.750139,-0.52917 z m -43.675446,-2.8138 c 0.3016,-0.38343 0.54837,-0.96268 0.54837,-1.28724 0,-0.84831 -0.9832,-1.98437 -1.71736,-1.98437 -1.01726,0 -1.49723,0.29798 -1.85659,1.15264 -0.88391,2.10222 1.64538,3.87361 3.02558,2.11897 z m 17.59509,-0.77697 c 0.22868,-0.22867 0.41578,-0.6412 0.41578,-0.91673 0,-1.01225 -1.81125,-1.29386 -1.88343,-0.29283 -0.10466,1.45134 0.62474,2.05247 1.46765,1.20956 z m 42.908366,-22.63276 c 0.64996,-0.71821 0.57687,-1.96477 -0.16128,-2.75049 -0.75066,-0.79904 -1.55472,-0.8415 -2.32613,-0.12282 -0.81846,0.76252 -0.99338,1.714 -0.46371,2.52238 0.78145,1.19265 2.05258,1.3438 2.95112,0.35093 z"
                style="fill:#000000;stroke-width:0.26458335"/>
        <path
                id="path4496-9"
                d="m 13.575985,209.46379 c -0.23083,-0.22514 -0.23368,-4.19973 -0.004,-4.84381 0.0921,-0.25762 0.39647,-0.835 0.67642,-1.28307 0.59452,-0.95153 1.12994,-1.83969 1.68108,-2.78864 0.21691,-0.37347 0.45977,-0.77975 0.5397,-0.90282 0.96194,-1.48133 3.74756,-6.04499 3.8523,-6.31122 0.0503,-0.12775 0.19894,-0.23228 0.33041,-0.23228 0.34036,0 5.42691,5.02109 5.42581,5.35599 -0.001,0.26553 -0.10565,0.49332 -0.66695,1.44987 -1.27977,2.18094 -1.22647,2.05119 -0.91044,2.21615 0.16076,0.0839 1.51032,0.18926 3.03437,0.23687 l 2.74484,0.0857 1.78006,1.69413 c 3.09236,2.94306 4.2332,3.98698 4.65025,4.25516 0.37914,0.24381 0.77128,0.26057 6.1177,0.26142 5.64662,0.001 5.71712,0.004 6.1057,0.30253 0.89151,0.68398 1.24234,0.67066 -17.65561,0.67066 -13.44557,0 -17.57111,-0.0388 -17.70217,-0.16668 z m 106.490195,0.0355 c -0.44353,-0.0883 -2.15673,-0.85042 -2.91929,-1.29873 -1.14026,-0.67035 -2.12363,-1.40864 -2.91824,-2.19095 -1.15325,-1.13539 -1.27574,-1.29205 -1.31906,-1.68686 l -0.0348,-0.31759 10.75155,-0.10704 c 5.91336,-0.0589 11.36641,-0.0901 12.11789,-0.0695 1.35743,0.0374 1.37088,0.0412 2.06487,0.58902 0.3842,0.30328 1.09904,0.94782 1.58856,1.43232 0.68954,0.68246 0.89003,0.97389 0.89003,1.2937 0,0.3188 -0.20268,0.61555 -0.89003,1.30316 -0.48952,0.4897 -1.07043,0.95633 -1.29092,1.03696 -0.4561,0.16678 -17.20792,0.18114 -18.04051,0.0155 z m -53.259335,-0.15216 c -1.30939,-0.29542 -1.71003,-0.43384 -2.63521,-0.91046 -0.54787,-0.28224 -1.02815,-0.551 -1.06731,-0.59725 -0.0392,-0.0462 -0.29549,-0.23756 -0.56962,-0.42513 -0.79215,-0.54203 -0.83878,-0.58154 -1.86898,-1.58345 -1.16397,-1.132 -1.2314,-1.40923 -0.3739,-1.53724 0.33287,-0.0497 0.76543,-0.20948 0.96124,-0.35507 0.31516,-0.23436 0.35601,-0.36795 0.35601,-1.1643 0,-0.75404 -0.0543,-0.95598 -0.33594,-1.24834 -0.41913,-0.43514 -1.28203,-0.59813 -1.8231,-0.34435 -0.21649,0.10154 -0.5366,0.39181 -0.71137,0.64503 l -0.31775,0.46041 -0.1643,-0.5993 c -0.0904,-0.32962 -0.23814,-0.6869 -0.32838,-0.79394 -0.10724,-0.1272 -0.16409,-0.89715 -0.16409,-2.22232 v -2.02769 h 3.77373 3.77372 l 0.085,1.1806 c 0.0894,1.24168 0.34344,1.98123 0.94953,2.76423 0.33506,0.43285 0.35402,0.52815 0.22616,1.13692 -0.15482,0.73715 0.0438,1.80592 0.40019,2.15354 0.37486,0.36561 1.03641,0.46322 1.53697,0.22677 0.50805,-0.24 0.71828,-0.63896 0.71828,-1.36315 0,-0.38802 0.0703,-0.50661 0.36528,-0.61599 0.61159,-0.2268 4.4006,-0.17011 5.00164,0.0748 0.46081,0.18779 0.54151,0.18779 0.75427,0 0.36026,-0.318 1.50082,-0.27646 1.85347,0.0675 0.31435,0.3066 0.35615,0.58271 0.14616,0.96542 -0.18175,0.33122 -0.73876,0.45802 -1.51401,0.34463 -0.50954,-0.0745 -0.62582,-0.14538 -0.62582,-0.38133 0,-0.21896 -0.0402,-0.25063 -0.16432,-0.12954 -0.12415,0.12109 -0.0685,0.28277 0.2276,0.66144 0.4935,0.63106 0.92384,0.79644 1.65534,0.63613 0.71534,-0.15676 0.84466,0.0371 0.84466,1.26615 0,1.02407 0.0659,1.14057 1.46776,2.59408 1.13033,1.17198 1.09334,1.3547 -0.24134,1.19205 -1.55074,-0.18897 -2.60261,-1.1568 -2.45173,-2.25583 0.17539,-1.27765 -0.68098,-2.25419 -1.97679,-2.25419 -0.51124,0 -0.71347,0.0836 -1.1311,0.46781 -0.47511,0.43704 -0.50855,0.52351 -0.50855,1.31487 0,0.7791 0.0391,0.88517 0.48702,1.32208 0.45288,0.44173 0.56167,0.4787 1.55205,0.52748 0.92764,0.0457 1.10214,0.097 1.35277,0.3977 0.26152,0.31379 0.26608,0.35385 0.05,0.43966 -0.33564,0.13328 -8.96122,0.10582 -9.56525,-0.0305 z m 14.44006,-0.16812 c -0.23394,-0.17188 -0.89124,-0.75289 -1.46066,-1.29115 -1.01626,-0.96061 -1.03988,-0.99895 -1.28405,-2.08342 -0.14569,-0.64706 -0.24523,-1.65149 -0.24026,-2.4243 l 0.009,-1.3195 0.38457,-0.0433 c 0.21151,-0.0238 0.52253,0.0287 0.69114,0.11674 0.29469,0.15383 0.30272,0.21763 0.20706,1.64594 -0.1461,2.18129 -0.0571,2.40289 1.65269,4.117 1.09346,1.09618 1.36559,1.4417 1.18789,1.50822 -0.40869,0.15296 -0.71225,0.0931 -1.14687,-0.22624 z m 2.29248,-0.0568 c -0.97561,-0.82345 -1.89528,-1.69889 -2.59888,-2.47388 l -0.74762,-0.82348 v -1.8325 c 0,-2.09172 -0.0586,-2.00111 1.29329,-2.00111 1.35195,0 1.41239,0.11208 1.41239,2.61904 v 2.06345 l 0.48645,0.62137 c 0.55175,0.70481 0.98802,1.01698 1.82266,1.3042 0.71188,0.24497 1.06661,0.63583 0.7064,0.77834 -0.13124,0.0519 -0.62311,0.0968 -1.09305,0.0998 -0.71971,0.005 -0.92178,-0.0515 -1.28164,-0.35522 z m 95.395905,-0.33796 c -0.53989,-0.38903 -1.0457,-0.77967 -1.12402,-0.8681 -0.0783,-0.0884 -0.46281,-0.40546 -0.85443,-0.70454 -0.39161,-0.29908 -0.7761,-0.61159 -0.85442,-0.69447 -0.0783,-0.0829 -0.43078,-0.37688 -0.78323,-0.65332 -0.35245,-0.27645 -0.89715,-0.72814 -1.21044,-1.00377 -0.31329,-0.27563 -0.61031,-0.5026 -0.66004,-0.50437 -0.0497,-0.002 -0.19377,-0.15706 -0.32009,-0.34509 -0.22598,-0.3364 -0.21472,-0.35694 0.70446,-1.28479 4.10631,-4.14491 4.08913,-4.13005 4.52253,-3.90859 0.29223,0.14933 0.60723,0.38974 1.92946,1.47256 0.30318,0.24828 0.61822,0.45141 0.7001,0.45141 0.0819,0 0.17023,0.0536 0.19635,0.11921 0.0261,0.0656 0.52808,0.51825 1.1155,1.00599 2.17886,1.80913 2.65566,2.34263 2.83549,3.17263 0.28575,1.31897 -0.18299,2.71777 -1.21729,3.63262 -0.86984,0.76937 -1.02745,0.81994 -2.55514,0.81994 h -1.44318 z m -91.906985,-0.26494 c -0.43078,-0.22196 -0.95969,-0.40652 -1.17535,-0.41013 -0.50024,-0.008 -1.31669,-0.43333 -1.64845,-0.85803 -0.61848,-0.79172 -0.82825,-1.89569 -0.59214,-3.11621 l 0.17615,-0.91056 1.01468,-0.64755 c 0.55807,-0.35616 1.03603,-0.69611 1.06214,-0.75547 0.0261,-0.0593 0.13395,-0.10791 0.23966,-0.10791 0.10571,0 0.60269,-0.3945 1.10439,-0.87666 0.71799,-0.69003 0.9319,-0.99311 1.00481,-1.42368 0.0509,-0.30085 0.0933,-2.80022 0.0942,-5.55417 10e-4,-3.58248 0.0481,-5.05255 0.16511,-5.16668 0.12311,-0.12008 0.12311,-0.35583 0,-0.95376 -0.0901,-0.43771 -0.16354,-2.02633 -0.16354,-3.53888 V 181.455 l 0.53401,-0.43166 c 0.42187,-0.34101 0.60879,-0.40991 0.89003,-0.32808 0.76139,0.22155 1.40207,0.11755 1.84908,-0.30015 0.38989,-0.36434 0.429399,-0.48292 0.429399,-1.28899 0,-0.84891 -0.025,-0.91257 -0.570669,-1.45556 -0.50259,-0.50008 -0.64813,-0.56783 -1.21994,-0.56783 -0.55804,0 -0.7228,0.0717 -1.17266,0.51051 -0.47832,0.46653 -0.52582,0.58344 -0.55144,1.35732 -0.0154,0.46575 -0.0655,0.88334 -0.11124,0.92798 -0.0457,0.0446 -0.0657,-1.07139 -0.0443,-2.48005 l 0.0389,-2.56123 1.90345,-0.0388 c 2.241809,-0.0458 2.041749,-0.14206 4.329309,2.08369 l 1.391,1.35341 -0.0489,10.80144 c -0.0306,6.76757 -0.10424,11.05639 -0.19715,11.48412 -0.10238,0.47129 -0.26347,0.7645 -0.52027,0.94696 -0.34124,0.24245 -0.3551,0.2894 -0.16776,0.56828 0.18221,0.27123 0.1727,0.35255 -0.0882,0.7545 -0.16085,0.24778 -0.32807,0.45051 -0.3716,0.45051 -0.0435,0 -0.28686,-0.23666 -0.5407,-0.52591 -0.25383,-0.28924 -0.8085,-0.69162 -1.2326,-0.89416 -0.42409,-0.20253 -1.076219,-0.65341 -1.449159,-1.00194 -0.5933,-0.55445 -0.75578,-0.63368 -1.29946,-0.63368 -1.24642,0 -1.77917,0.51485 -1.77917,1.7194 0,0.51548 0.0822,0.707 0.47963,1.11806 0.42649,0.44106 0.55903,0.49602 1.19614,0.49602 0.61465,0 0.82429,-0.079 1.47461,-0.55558 0.817299,-0.59897 0.974709,-0.6417 1.451539,-0.394 0.60987,0.31682 1.17091,1.32732 1.03347,1.86142 -0.10853,0.42179 -0.76591,1.17159 -1.02716,1.17159 -0.11452,0 -0.3014,-0.21753 -0.4153,-0.4834 -0.36275,-0.8468 -1.359769,-1.27189 -2.268479,-0.96718 -0.88015,0.29513 -1.14122,0.64343 -1.14122,1.52257 0,0.69772 0.0418,0.79517 0.51959,1.21148 0.28577,0.24899 0.59274,0.59394 0.68215,0.76654 0.14396,0.27791 0.12009,0.32958 -0.2085,0.45143 -0.46619,0.17288 -0.70347,0.0527 -1.44517,-0.73215 l -0.57649,-0.61002 0.0603,-1.03104 c 0.0497,-0.84971 0.0116,-1.10629 -0.2166,-1.45885 -0.39082,-0.60369 -1.18211,-0.94158 -1.94407,-0.83013 -0.80752,0.11811 -1.20177,0.54542 -1.30093,1.41003 -0.0671,0.58485 -0.0222,0.76405 0.31709,1.26611 0.4423,0.65449 0.99995,0.94599 1.58965,0.83096 0.32959,-0.0643 0.529,0.0421 1.20958,0.64529 0.87824,0.77837 0.96679,0.97501 0.53949,1.19806 -0.37133,0.19383 -0.39489,0.18885 -1.29101,-0.2729 z m 6.835429,-8.04772 c 0,-0.18851 -0.25129,-0.31237 -0.34231,-0.16873 -0.0851,0.13432 0.0382,0.29943 0.22363,0.29943 0.0653,0 0.11868,-0.0588 0.11868,-0.1307 z m -0.71521,-0.94995 c -0.1549,-0.2819 -0.28163,-0.77782 -0.28163,-1.10207 0,-0.67277 -0.34649,-1.65002 -0.72382,-2.04146 -0.313799,-0.32555 -1.647999,-0.46907 -2.111469,-0.22714 -0.43797,0.22862 -0.86607,0.96551 -0.8667,1.49187 -5.4e-4,0.64298 0.51519,1.39915 1.18065,1.73027 0.50363,0.2506 0.64659,0.26614 1.13513,0.12338 0.47012,-0.13739 0.598159,-0.12872 0.805779,0.0545 0.13576,0.11984 0.31405,0.21788 0.3962,0.21788 0.0821,0 0.22854,0.0931 0.32533,0.20681 0.32577,0.38286 0.42473,0.0631 0.14053,-0.45409 z m -43.715049,8.85777 c -0.63017,-0.46618 -3.18267,-0.61116 -7.65526,-0.43479 -2.60423,0.1027 -3.99818,0.10713 -4.25062,0.0136 -0.20659,-0.0766 -1.55646,-1.27723 -2.99971,-2.66803 -2.35107,-2.26562 -2.59832,-2.54713 -2.37632,-2.70546 0.18465,-0.1317 1.14064,-0.17672 3.75221,-0.17672 3.6545,0 3.84618,0.03 3.84618,0.60169 0,0.78695 0.90241,1.48173 1.92451,1.48173 0.70113,0 1.6229,-0.7835 1.77801,-1.51129 0.10441,-0.48987 0.46304,-0.66408 0.93516,-0.45427 l 0.38765,0.17227 -0.37659,0.38339 c -0.32246,0.32829 -0.37592,0.50209 -0.37186,1.20916 0.005,0.91738 0.207,1.26316 0.95795,1.64192 0.74119,0.37384 1.61957,0.23718 2.2649,-0.35238 0.40115,-0.36647 0.66926,-0.27309 1.55846,0.5428 1.06363,0.97596 1.55247,1.37794 1.8898,1.55403 0.37542,0.19596 0.37711,0.29462 0.0116,0.67725 -0.35234,0.36887 -0.79957,0.37769 -1.27609,0.0252 z m 98.448795,-0.52032 c -0.48315,-0.43899 -0.94774,-0.9347 -1.03243,-1.10155 -0.18778,-0.36996 -0.20276,-1.01613 -0.0236,-1.01613 0.0717,0 0.71724,0.4961 1.43447,1.10244 1.19645,1.01146 1.36862,1.11031 2.08619,1.19775 0.43017,0.0524 1.28441,0.0526 1.89832,2.8e-4 1.16366,-0.099 1.47777,0.0152 1.13843,0.41401 -0.13726,0.16133 -0.6224,0.20216 -2.39753,0.20178 l -2.22544,-4.2e-4 -0.87845,-0.79817 z m 1.65666,-0.90143 c -0.3552,-0.17239 -0.83582,-0.51157 -1.06803,-0.75373 -0.23221,-0.24216 -0.65211,-0.67968 -0.9331,-0.97226 -0.66398,-0.69136 -0.84194,-1.03308 -0.84194,-1.61664 0,-0.42413 0.05,-0.48767 0.44501,-0.56471 0.55289,-0.10786 2.3694,-0.11047 2.77613,-0.004 0.25662,0.0672 0.31275,0.21132 0.37451,0.96169 0.099,1.20269 0.49408,1.81782 1.24734,1.94195 1.33189,0.21947 2.13483,-0.40977 2.13483,-1.67298 0,-0.67174 -0.0517,-0.79905 -0.50316,-1.2394 -0.49552,-0.4833 -0.52121,-0.49075 -1.69095,-0.49075 -0.71742,0 -1.43455,-0.0861 -1.81091,-0.21739 -0.42361,-0.14778 -0.98791,-0.20337 -1.76237,-0.17362 l -1.13923,0.0438 -0.0432,-0.43257 c -0.0387,-0.38742 0.004,-0.44178 0.40941,-0.52085 0.24893,-0.0486 1.87419,-0.0883 3.61168,-0.0883 2.50468,0 3.21634,0.0409 3.43552,0.19729 0.25536,0.18225 0.27643,0.38216 0.27643,2.62455 0,3.20017 0.13081,3.05254 -2.84809,3.21412 -1.28435,0.0697 -1.48741,0.0465 -2.06989,-0.23618 z M 48.550425,204.90837 c -2.53544,-2.5176 -2.53103,-2.50044 -0.64277,-2.50044 0.85779,0 1.18723,0.067 1.75381,0.35652 0.84417,0.43138 1.05343,0.67603 1.05434,1.2326 4.3e-4,0.23368 0.22467,0.85055 0.49842,1.37083 0.53226,1.01163 0.59779,1.33154 0.32684,1.59581 -0.40627,0.39625 -0.78121,0.13857 -2.99064,-2.05532 z m 90.170765,-0.36191 c -0.74406,-0.72439 -1.48101,-1.34551 -1.63765,-1.38027 -0.15664,-0.0348 -5.80872,-0.0789 -12.56017,-0.0982 -9.41413,-0.0269 -12.31574,-0.0744 -12.44862,-0.20409 -0.13609,-0.13279 -0.11469,-0.19239 0.0998,-0.27778 0.15017,-0.0598 6.04041,-0.10873 13.08945,-0.10873 h 12.81642 l 0.80511,0.5848 c 1.0813,0.78542 1.45689,1.32358 1.46605,2.10062 0.004,0.34128 -0.0568,0.63856 -0.13509,0.66062 -0.0783,0.022 -0.75119,-0.55257 -1.49525,-1.27696 z m 32.68187,-1.81364 c -0.93813,-0.79231 -2.42592,-2.08039 -2.7817,-2.40831 -0.20722,-0.19099 -0.81957,-0.72112 -1.36081,-1.17808 -0.9416,-0.79499 -1.34094,-1.14117 -2.24764,-1.94846 -0.31309,-0.27876 -0.37995,-0.42443 -0.28481,-0.62043 0.0684,-0.14088 1.19748,-1.33273 2.5091,-2.64858 l 2.38475,-2.39244 0.53454,0.36698 c 0.51632,0.35446 1.7227,1.31107 2.45701,1.94827 0.19581,0.16992 0.67643,0.55512 1.06804,0.85601 0.39161,0.30087 0.90426,0.71198 1.13923,0.91356 0.52583,0.45111 1.59798,1.32511 2.17636,1.77412 0.23733,0.18424 0.40289,0.40772 0.36791,0.49662 -0.13119,0.33345 -5.11649,5.21143 -5.32116,5.2066 -0.11748,-0.003 -0.40585,-0.16742 -0.64082,-0.36586 z m -58.77174,-1.35249 c -1.6368,-0.18114 -1.88549,-0.33569 -1.38522,-0.86084 0.19085,-0.20035 0.47516,-0.41598 0.63181,-0.47917 0.22742,-0.0917 0.18149,-0.11668 -0.22795,-0.1237 -0.73898,-0.0127 -1.38411,-0.26694 -1.48809,-0.58647 -0.0495,-0.15216 -0.0637,-0.30235 -0.0315,-0.33376 0.0322,-0.0314 1.89608,-0.068 4.14195,-0.0812 3.76513,-0.0222 4.10566,-0.004 4.369,0.228 0.15708,0.13866 0.2856,0.42751 0.2856,0.64189 0,0.27156 0.17568,0.55943 0.57912,0.94902 0.31851,0.30758 0.53901,0.6225 0.49,0.69984 -0.11858,0.18715 -5.54637,0.14764 -7.36475,-0.0536 z m 34.23776,-0.94244 c -0.0953,-0.0929 -0.17322,-0.37522 -0.17322,-0.6273 v -0.45836 h 3.84939 c 4.20235,0 4.15242,-0.0102 3.87769,0.79407 l -0.13204,0.38654 -3.62429,0.037 c -2.69938,0.0276 -3.6685,-0.006 -3.79753,-0.13195 z m -37.37645,-2.48457 c -0.13706,-0.0785 -0.24921,-0.2343 -0.24921,-0.34622 0,-0.17503 0.6022,-0.19834 4.30775,-0.16671 4.20024,0.0359 4.30774,0.0437 4.30774,0.31454 0,0.27056 -0.10576,0.27862 -4.05853,0.30947 -2.58179,0.0202 -4.14922,-0.0203 -4.30775,-0.11108 z m -84.503675,-2.04328 c -0.87371,-0.81873 -2.02719,-1.89485 -2.56328,-2.3914 -1.45462,-1.34733 -1.41749,-1.26351 -0.95464,-2.15509 0.21749,-0.41894 0.44613,-0.76171 0.50809,-0.76171 0.062,0 0.11266,-0.0744 0.11266,-0.16526 0,-0.24378 1.14966,-2.05706 1.30422,-2.05706 0.13158,0 1.77047,1.28295 2.04229,1.59874 0.0783,0.091 0.39286,0.346 0.69898,0.56668 0.52348,0.37738 0.65051,0.40371 2.13607,0.44286 0.86872,0.0229 1.72026,0.0708 1.8923,0.10641 0.30372,0.0629 0.30641,0.0799 0.0928,0.58485 -0.12101,0.28604 -0.36006,0.70758 -0.53124,0.93676 -0.17118,0.22917 -0.3887,0.57294 -0.48338,0.76392 -0.0947,0.19098 -0.2331,0.44099 -0.3076,0.55558 -0.0745,0.11459 -0.50344,0.83337 -0.95322,1.59729 -0.82076,1.39402 -1.16318,1.879 -1.32075,1.87055 -0.0466,-0.003 -0.79959,-0.6744 -1.6733,-1.49312 z m 83.544625,0.38862 c -0.39368,-0.38398 -0.36142,-0.50846 0.15803,-0.60979 0.5993,-0.11691 7.50776,-0.0844 7.95686,0.0375 0.25617,0.0695 0.35601,0.19221 0.35601,0.43756 v 0.34098 l -4.09195,0.0368 c -3.93895,0.0355 -4.10269,0.0264 -4.37895,-0.24307 z m 38.39645,-0.11885 c -0.1729,-0.18634 -0.23878,-0.44197 -0.20801,-0.80719 l 0.045,-0.53448 h 3.84493 3.84493 l 0.046,0.46907 c 0.0253,0.25799 -0.0258,0.53926 -0.11357,0.62503 -0.10354,0.10122 -1.29421,0.18362 -3.39247,0.23477 -1.77813,0.0434 -3.36363,0.12533 -3.52336,0.18217 -0.20417,0.0726 -0.36555,0.0224 -0.54345,-0.16937 z m -89.094675,-0.6472 c -0.14144,-0.16621 -0.14144,-0.25046 0,-0.41668 0.14887,-0.17496 0.74407,-0.20834 3.71494,-0.20834 3.29411,0 3.54736,0.0177 3.67842,0.25651 0.28979,0.52812 -0.0229,0.57686 -3.70189,0.57686 -2.95,0 -3.54266,-0.0334 -3.69147,-0.20835 z m 50.126425,-0.72626 c -0.26528,-0.0985 -0.43137,-0.33542 -0.33821,-0.48243 0.0985,-0.15541 8.41984,-0.14022 8.51854,0.0155 0.044,0.0695 0.041,0.22576 -0.007,0.34724 -0.0767,0.1949 -0.54971,0.21958 -4.02339,0.20991 -2.16507,-0.006 -4.03261,-0.0467 -4.1501,-0.0903 z m 52.67022,-1.25226 c -0.72441,-0.59245 -1.59759,-1.34971 -1.94041,-1.6828 -0.60093,-0.58391 -0.614,-0.61448 -0.36413,-0.8516 0.14255,-0.13527 1.17132,-1.15166 2.28614,-2.25865 1.11483,-1.10698 2.22093,-2.09105 2.45801,-2.18684 0.57041,-0.23044 0.80037,-0.0847 3.75076,2.37787 0.4321,0.36066 0.43391,0.36785 0.18566,0.7374 -0.50211,0.74742 -4.28543,4.52647 -4.8177,4.81225 -0.19036,0.10221 -0.519,-0.0976 -1.55833,-0.94763 z m -102.773505,0.53702 c -0.10476,-0.0648 -0.16884,-0.26694 -0.14241,-0.44929 l 0.0481,-0.33152 h 3.70252 3.70252 l 0.0481,0.33152 c 0.0264,0.18235 -0.0376,0.38452 -0.1424,0.44929 -0.10476,0.0648 -1.72843,0.11774 -3.60818,0.11774 -1.87974,0 -3.50342,-0.053 -3.60817,-0.11774 z m 89.054105,-0.23339 c -0.22204,-0.16371 -0.24897,-0.25831 -0.12722,-0.44698 0.13575,-0.21037 0.51792,-0.24775 3.15781,-0.30879 l 3.00337,-0.0695 0.49658,-0.46978 c 0.66367,-0.62786 0.94405,-0.51988 0.93804,0.36125 -0.008,1.18018 0.0888,1.15086 -3.7849,1.14583 -2.79342,-0.004 -3.4524,-0.0416 -3.68368,-0.21208 z m -40.18096,-0.82522 c -0.0451,-0.11458 -0.0451,-0.30209 0,-0.41668 0.0703,-0.17857 0.67213,-0.20834 4.21116,-0.20834 3.99753,0 4.13411,0.009 4.2832,0.28066 0.0847,0.15436 0.11521,0.34186 0.0678,0.41668 -0.0531,0.0838 -1.69785,0.13603 -4.2832,0.13603 -3.5993,0 -4.20868,-0.0297 -4.27897,-0.20835 z m -48.860695,-0.717 c -0.22615,-0.089 -0.23022,-0.49602 -0.007,-0.71362 0.12264,-0.11961 1.0625,-0.16667 3.32872,-0.16667 3.68378,0 4.04785,0.0438 4.04785,0.4873 0,0.20787 -0.10807,0.34192 -0.32041,0.39742 -0.38313,0.10015 -6.79356,0.0961 -7.04904,-0.004 z m 88.919845,-0.13951 c -0.0522,-0.0509 -0.0949,-0.21424 -0.0949,-0.36292 0,-0.28703 0.33138,-0.28999 2.70569,-0.0242 1.00841,0.11288 1.734,-0.18744 2.9905,-1.23777 0.50909,-0.42555 1.19797,-1.00259 1.53085,-1.28229 l 0.60522,-0.50855 v 0.47891 c 0,1.0082 -0.3814,1.83711 -1.12772,2.4509 l -0.70344,0.57854 h -2.90561 c -1.59809,0 -2.94833,-0.0417 -3.00055,-0.0926 z m -40.85827,-0.7519 c -0.13707,-0.0779 -0.24925,-0.2791 -0.2493,-0.44719 l -9e-5,-0.30561 4.15259,0.0461 c 3.51573,0.039 4.20603,0.0802 4.50108,0.26878 0.32881,0.21014 0.33403,0.23302 0.0924,0.40534 -0.32133,0.22917 -8.09818,0.25902 -8.49671,0.0326 z m 50.83671,-1.06623 -0.52237,-0.52177 2.56955,-2.53392 c 1.41324,-1.39366 2.648,-2.53392 2.74389,-2.53392 0.0959,0 0.44279,0.19255 0.77087,0.42789 0.53523,0.3839 0.57957,0.45885 0.43152,0.72919 -0.2608,0.47618 -5.00588,4.9526 -5.25079,4.95349 -0.12116,4.2e-4 -0.45537,-0.23399 -0.74267,-0.52096 z m -98.937815,0.16991 c -0.15272,-0.17948 -0.14988,-0.25164 0.0162,-0.41132 0.15902,-0.15294 0.95897,-0.20259 3.80358,-0.2361 l 3.60222,-0.0424 -0.0421,0.41669 -0.0421,0.41668 -3.57628,0.0371 c -3.10408,0.0322 -3.60074,0.008 -3.76149,-0.18058 z m 88.935645,-0.0648 c -0.18165,-0.28668 0.11404,-0.41669 0.94766,-0.41669 0.97446,0 1.30895,-0.14702 2.66611,-1.17186 1.6119,-1.2172 2.5314,-2.0691 5.58666,-5.17597 0.98748,-1.00415 1.88463,-1.84421 1.99367,-1.86681 0.30824,-0.0639 0.98149,0.43839 0.98149,0.73222 0,0.1603 -1.56481,1.78849 -3.98932,4.15088 l -3.98932,3.88712 h -2.05447 c -1.21604,0 -2.09039,-0.0567 -2.14248,-0.13889 z m -40.62555,-0.5102 c -0.25919,-0.10155 -1.52642,-1.42932 -1.91312,-2.00451 -1.28665,-1.91377 -1.05175,-2.21625 0.55284,-0.7119 0.69195,0.64872 1.51004,1.34321 1.81798,1.54329 l 0.55988,0.3638 h 3.03151 c 2.91165,0 3.04363,0.0118 3.33793,0.2985 0.16852,0.16417 0.26281,0.36731 0.20952,0.45141 -0.0984,0.15533 -7.20979,0.21095 -7.59654,0.0594 z m -46.132705,-0.69624 c -2.15714,-0.0505 -2.17039,-0.0528 -2.25628,-0.38659 -0.0475,-0.18465 -0.0445,-0.4018 0.007,-0.48252 0.0608,-0.096 1.18059,-0.1468 3.23262,-0.1468 h 3.1396 l 0.55451,-0.42835 0.55451,-0.42836 -7e-4,0.53253 c -4.2e-4,0.34511 -0.11489,0.6717 -0.32515,0.92798 -0.30554,0.3724 -0.39473,0.39742 -1.53015,0.42921 -0.66313,0.0186 -2.18214,0.0109 -3.37558,-0.0171 z m 95.007605,-0.38643 c -0.12664,-0.18853 -0.20822,-0.3989 -0.18127,-0.46749 0.027,-0.0686 0.72734,-0.83624 1.55645,-1.70591 0.82911,-0.86967 1.89771,-1.99654 2.3747,-2.50416 0.85854,-0.9137 0.87124,-0.92096 1.26942,-0.72503 0.22121,0.10885 0.51804,0.33242 0.65962,0.49682 0.25571,0.29693 0.24056,0.31539 -2.27699,2.77374 -2.67828,2.6153 -2.95906,2.79126 -3.40193,2.13203 z m -8.14255,0.11191 c -0.35649,-0.14031 -0.18711,-0.5779 0.28481,-0.73579 0.52417,-0.17537 1.86814,-1.40079 7.15583,-6.52462 4.45862,-4.32045 5.25146,-5.00926 5.76581,-5.00926 0.79938,0 0.8135,-0.018 -1.67167,2.12428 -1.44624,1.24666 -1.69089,1.62258 -1.30249,2.0014 0.10075,0.0983 0.11029,0.23499 0.0266,0.38088 -0.0718,0.12517 -1.88627,1.94377 -4.03208,4.04134 l -3.90149,3.81376 -1.07365,-0.011 c -0.59051,-0.006 -1.15375,-0.0425 -1.25166,-0.081 z m -39.48169,-0.70515 c -0.17839,-0.0674 -1.63191,-1.28346 -4.11061,-3.43904 -0.81643,-0.71001 -0.84078,-1.31963 -0.0527,-1.31963 0.26984,0 0.85792,0.47944 2.37264,1.93434 1.28534,1.23459 2.16668,1.97276 2.43628,2.04054 0.51294,0.12894 1.07581,0.12504 2.52492,-0.0175 0.92321,-0.0908 1.19935,-0.0676 1.67326,0.14089 0.61192,0.26914 0.65925,0.34028 0.39669,0.59636 -0.17744,0.17306 -4.8024,0.22957 -5.24049,0.064 z m -79.918575,-0.62654 c -0.27314,-0.24828 -0.89089,-0.79422 -1.37277,-1.21321 -0.92875,-0.80755 -1.07233,-1.17485 -0.61652,-1.57718 0.24483,-0.21611 0.30771,-0.18511 1.10363,0.54411 1.42645,1.3069 1.6154,1.36435 4.13837,1.25825 1.89032,-0.0795 2.16753,-0.0636 2.24323,0.12884 0.0915,0.23253 -0.0914,0.66496 -0.45138,1.06753 -0.18919,0.21154 -0.49824,0.24307 -2.38266,0.24307 h -2.16528 z m 30.3234,-0.41669 c -0.17219,-0.48147 0.0311,-0.52085 2.68767,-0.52085 h 2.61884 l 0.59298,-0.52086 c 0.32613,-0.28647 0.78491,-0.70732 1.0195,-0.93521 l 0.42652,-0.41435 0.14679,0.32086 c 0.11739,0.25658 0.0773,0.44667 -0.20026,0.94882 -0.19088,0.34538 -0.5282,0.7781 -0.7496,0.96159 -0.39762,0.32955 -0.43967,0.33362 -3.44144,0.33362 -2.30308,0 -3.05395,-0.042 -3.101,-0.17362 z m 88.993795,0.081 c -0.0522,-0.0509 -0.0949,-0.39719 -0.0949,-0.76948 v -0.67688 l 2.53437,-2.45983 c 1.39391,-1.3529 3.88058,-3.75676 5.52593,-5.3419 l 2.99155,-2.88207 h 2.22673 c 1.48016,0 2.25952,0.0518 2.32457,0.15442 0.13255,0.20918 -0.20231,0.39576 -0.72186,0.40221 -0.23497,0.003 -0.85636,0.11325 -1.38084,0.24519 -1.22866,0.30907 -1.71928,0.73115 -7.89391,6.79091 -3.64043,3.57271 -4.79759,4.63003 -5.06723,4.63003 -0.19219,0 -0.39215,-0.0417 -0.44437,-0.0926 z m -37.47616,-0.55469 c -1.37716,-0.16146 -2.06292,-0.55187 -3.75301,-2.13662 -1.61778,-1.51694 -2.17567,-1.93852 -2.56533,-1.93852 -0.66015,0 -0.77387,-0.26574 -0.69838,-1.63199 0.0526,-0.95166 0.14793,-1.36823 0.43946,-1.91996 0.55158,-1.04387 1.56274,-1.35797 2.31481,-0.71907 0.88532,0.7521 1.28467,0.54495 0.67089,-0.348 -0.47883,-0.69661 -1.67176,-1.50917 -2.17583,-1.48207 -0.64076,0.0344 -0.71203,-0.006 -0.71203,-0.40043 0,-0.79436 0.26152,-0.93113 1.74584,-0.91306 1.64467,0.02 1.6627,0.0298 3.77235,2.0536 l 1.60205,1.53684 v 1.28384 c 0,1.20143 -0.0219,1.29784 -0.34133,1.50198 -0.18773,0.11997 -0.51561,0.46342 -0.72862,0.76322 -0.43319,0.60969 -0.41505,1.20734 0.0532,1.75399 0.23432,0.27355 1.13314,0.63475 2.01355,0.8092 0.37426,0.0742 0.85443,0.87259 0.85443,1.42077 0,0.41169 -0.93396,0.54896 -2.49208,0.36628 z m -82.131205,-1.81809 c -0.52753,-0.51565 -1.00049,-0.98247 -1.05102,-1.03738 -0.0505,-0.0549 0.0178,-0.26301 0.15171,-0.46244 l 0.2436,-0.36261 1.5321,0.0969 1.5321,0.0969 0.76486,-0.66256 c 0.42068,-0.36441 1.12147,-1.01693 1.55733,-1.45004 0.43586,-0.43312 1.00903,-0.86111 1.27372,-0.95111 0.52554,-0.17869 3.99885,-0.22979 3.99885,-0.0588 0,0.22861 -1.08397,1.89288 -1.32559,2.03524 -0.19762,0.11644 -0.29739,0.10327 -0.42883,-0.0566 -0.69028,-0.8396 -1.93172,-1.09452 -2.4929,-0.5119 -0.54659,0.56748 -0.36436,1.10823 0.19095,0.56662 0.40804,-0.398 1.05276,-0.43521 1.6049,-0.0926 0.50391,0.31264 0.5954,0.44878 0.59803,0.88989 0.002,0.31366 -0.10886,0.40979 -0.77652,0.6741 -0.71446,0.28283 -0.79753,0.28989 -1.007,0.0856 -0.12557,-0.12248 -0.2835,-0.22269 -0.35095,-0.22269 -0.0675,0 -0.16331,-0.125 -0.21303,-0.27779 -0.0497,-0.15278 -0.17686,-0.27779 -0.28254,-0.27779 -0.10568,0 -0.22743,-0.0781 -0.27056,-0.17362 -0.0431,-0.0955 -0.0413,0.0764 0.004,0.38196 0.10487,0.70595 0.38913,1.14617 0.92787,1.43698 0.83297,0.44963 0.86049,0.4847 0.70107,0.89365 l -0.14727,0.37783 h -2.88793 -2.88792 z m 30.56102,0.72919 c -0.22233,-0.56509 -0.011,-0.62502 2.2033,-0.62502 2.33045,0 2.25501,0.0232 3.36513,-1.03716 1.14845,-1.09704 1.92752,-1.58061 1.92752,-1.19642 0,0.1474 -0.43068,0.96 -0.64083,1.2091 -0.0783,0.0928 -0.27056,0.33741 -0.42721,0.5435 -0.15664,0.20608 -0.48667,0.58612 -0.73339,0.84452 l -0.44857,0.46983 h -2.58199 c -2.16374,0 -2.59527,-0.0338 -2.66396,-0.20835 z m 88.951415,-2.05569 v -1.03271 l 3.45331,-3.41996 c 1.89932,-1.88099 3.6776,-3.66804 3.95173,-3.97124 0.27412,-0.3032 0.57851,-0.55381 0.67642,-0.55691 0.0979,-0.003 0.178,-0.0769 0.178,-0.16395 0,-0.0871 0.11215,-0.24348 0.24921,-0.34757 0.23393,-0.17767 0.23278,-0.18366 -0.0186,-0.0976 -0.14732,0.0504 -0.54615,0.36306 -0.88628,0.69482 -0.34014,0.33175 -0.65471,0.60318 -0.69906,0.60318 -0.0444,0 -0.48503,0.40627 -0.97931,0.90283 -0.49429,0.49655 -0.97235,0.90281 -1.06237,0.90281 -0.09,0 -0.16367,0.0645 -0.16367,0.14321 0,0.0788 -0.26596,0.37565 -0.59103,0.65975 -0.32505,0.2841 -1.22254,1.10683 -1.99439,1.82829 -1.50358,1.40542 -1.6611,1.53019 -1.93592,1.53348 -0.24782,0.003 -0.23393,-1.4081 0.0195,-1.98159 0.21393,-0.48409 1.33592,-1.71901 3.17233,-3.49161 3.8384,-3.70504 3.83213,-3.69961 4.3709,-3.78489 0.36706,-0.0581 0.74749,-0.29112 1.26907,-0.77732 1.27233,-1.186 0.72133,-1.09966 6.89566,-1.08056 3.03768,0.009 5.57934,0.072 5.64814,0.1391 0.12811,0.12496 -1.65901,1.87751 -2.23216,2.18896 -0.2247,0.12211 -1.55725,0.17006 -4.82508,0.17361 -2.89268,0.003 -4.63218,0.0583 -4.84176,0.15332 -0.38143,0.17304 -0.89543,0.80201 -0.76185,0.93229 0.0504,0.0492 0.23294,-0.002 0.40561,-0.11367 0.24989,-0.16166 1.05689,-0.21224 3.95639,-0.24797 2.00335,-0.0247 3.8424,0.007 4.08678,0.0694 l 0.44435,0.11433 -0.26912,0.34723 -0.26911,0.34724 -3.09097,0.0448 -3.09096,0.0448 -0.7083,0.64965 c -0.38956,0.35731 -2.74309,2.6274 -5.23008,5.04464 -2.48699,2.41726 -4.65805,4.43718 -4.82458,4.48873 -0.29024,0.0899 -0.30279,0.051 -0.30279,-0.93897 z m -88.841805,0.41095 c -0.28472,-0.33463 0.0664,-0.43868 1.48029,-0.43868 0.96695,0 1.44321,-0.0676 1.92246,-0.27304 0.97835,-0.41931 1.97589,-1.19672 2.91555,-2.2722 0.8717,-0.99768 1.10633,-1.12174 1.1819,-0.62493 0.0486,0.31975 -0.58942,1.14828 -2.06698,2.68404 l -1.00224,1.04172 -2.12801,0.0444 c -1.74507,0.0364 -2.15951,0.007 -2.30297,-0.16126 z m 51.897955,-0.3097 c -0.43734,-0.42657 -0.24614,-1.44848 0.27101,-1.44848 0.27461,0 0.34361,0.1071 0.46969,0.72902 0.0813,0.40096 0.11804,0.77598 0.0817,0.83337 -0.1139,0.17975 -0.58871,0.11397 -0.82236,-0.11391 z m -82.426855,-1.12754 c -0.30804,-0.0785 -0.31427,-0.28997 -0.0252,-0.85518 0.17329,-0.33882 0.31653,-0.43803 0.63241,-0.43803 0.22461,0 0.44799,0.0625 0.49639,0.1389 0.0484,0.0764 0.3036,0.13889 0.5671,0.13889 0.97008,0 1.83684,-1.14812 1.76196,-2.3339 l -0.0412,-0.65234 3.55286,-0.0372 c 1.95407,-0.0205 3.63761,-0.006 3.74119,0.0333 0.14731,0.0551 0.13235,0.14553 -0.0686,0.41482 -0.25247,0.33829 -0.29257,0.34441 -2.28764,0.34869 -1.85132,0.004 -2.05219,0.0289 -2.27452,0.28216 -0.13412,0.15278 -0.31149,0.27778 -0.39417,0.27778 -0.0827,0 -0.25616,0.10938 -0.38554,0.24307 -0.27821,0.28747 -0.47279,0.43628 -1.01242,0.7743 -0.22063,0.1382 -0.64105,0.48526 -0.93428,0.77127 -0.91573,0.89316 -1.13141,0.99081 -2.14959,0.97316 -0.51125,-0.009 -1.04169,-0.0447 -1.17875,-0.0796 z m 30.4239,-0.23976 c -0.0425,-0.10814 -0.0565,-0.37377 -0.0311,-0.59031 l 0.0462,-0.39369 1.73062,-0.0694 c 1.71902,-0.069 1.73477,-0.0727 2.34968,-0.55327 0.34048,-0.2661 1.22393,-1.09664 1.96322,-1.84563 1.01613,-1.02948 1.37215,-1.31301 1.45888,-1.16185 0.30656,0.53428 -0.0652,1.105 -1.9293,2.96141 l -1.85702,1.8494 h -1.82691 c -1.44409,0 -1.84311,-0.0412 -1.90425,-0.19661 z m 0.0913,-4.23891 c -0.0811,-0.14776 -0.14741,-0.68766 -0.14741,-1.19979 0,-0.89328 0.0231,-0.95565 0.56962,-1.53388 0.50057,-0.52966 0.56961,-0.68402 0.56961,-1.27332 0,-0.62499 -0.38587,-1.40553 -0.8346,-1.68825 -0.0681,-0.0429 -0.16533,-0.20789 -0.21605,-0.36661 -0.094,-0.29409 -0.0626,-0.34334 0.97771,-1.53389 l 0.50016,-0.57241 v -2.34046 -2.34045 l 2.27128,-2.17078 c 2.26979,-2.16935 2.9323,-2.65595 3.43986,-2.52649 0.55471,0.14148 0.30567,0.65541 -0.76258,1.57368 -0.56784,0.48812 -1.44897,1.27603 -1.95807,1.75092 l -0.92563,0.86344 -0.0449,2.36414 -0.0449,2.36413 -0.45349,0.35275 c -1.01155,0.78684 -1.09432,0.91977 -1.09432,1.75749 0,0.72652 0.0386,0.82025 0.50103,1.21625 0.58433,0.5004 1.03011,0.63728 1.67157,0.51323 0.85381,-0.16511 1.15464,-0.54729 1.2201,-1.55006 0.0553,-0.8471 0.0334,-0.92258 -0.42949,-1.48223 -0.96286,-1.16407 -1.14481,-1.56723 -1.0664,-2.36285 0.10943,-1.11039 0.50333,-2.59453 0.77714,-2.92813 0.56855,-0.69272 2.74306,-2.63151 2.84266,-2.53452 0.0596,0.0581 0.13068,0.94406 0.15794,1.96891 l 0.0496,1.86337 -0.93083,0.40734 c -0.95235,0.41676 -1.37558,0.8899 -1.37558,1.5378 0,0.50719 0.38656,1.04661 0.95023,1.32599 1.37398,0.68098 1.32825,0.60341 1.32825,2.25284 v 1.4765 l -2.10047,2.05084 c -1.15526,1.12796 -2.40319,2.27186 -2.77319,2.542 -0.60874,0.44445 -0.76064,0.49117 -1.59704,0.49117 -0.76811,0 -0.94924,-0.0454 -1.07174,-0.26867 z m -27.95769,-0.23467 c -0.0489,-0.0477 0.0379,-0.32891 0.19277,-0.62502 l 0.2816,-0.53838 h 4.24551 c 2.33503,0 4.28395,0.0375 4.33092,0.0833 0.1555,0.15166 -0.20593,0.71685 -0.55866,0.8736 -0.25285,0.11237 -1.28694,0.11436 -3.81426,0.007 -3.04505,-0.12892 -3.532,-0.12046 -3.99812,0.0695 -0.61403,0.25024 -0.5656,0.241 -0.67976,0.12966 z M 108.90783,177.007 c -2.77847,-2.60943 -2.85352,-2.6559 -4.28973,-2.6559 -0.71549,0 -1.07086,-0.0533 -1.07086,-0.16061 0,-0.0883 0.32459,-0.80566 0.72132,-1.59406 0.52322,-1.03977 0.82632,-1.48231 1.10364,-1.61135 0.30982,-0.14417 0.39581,-0.2962 0.45351,-0.80188 0.11045,-0.96789 0.58781,-1.66569 1.13949,-1.66569 0.0657,0 0.50386,0.37502 0.9738,0.83337 0.86642,0.84507 1.01961,0.94853 1.01961,0.68861 0,-0.17327 -0.18054,-0.40167 -0.89095,-1.12712 -0.79642,-0.81329 -1.0045,-1.17647 -0.90209,-1.57446 0.14218,-0.55251 0.50412,-0.41773 1.58734,0.5911 0.55261,0.51465 1.27321,1.1545 1.60134,1.42187 l 0.5966,0.48613 5.4e-4,2.49025 c 4.3e-4,1.59399 0.0626,2.65705 0.17253,2.9537 0.15262,0.41166 0.13902,0.49544 -0.12182,0.74984 l -0.29363,0.2864 -0.32693,-0.53164 c -0.28665,-0.46612 -0.33744,-0.77964 -0.4122,-2.54408 -0.0749,-1.76741 -0.11561,-2.0181 -0.33448,-2.05889 -0.21821,-0.0407 -0.24921,0.0749 -0.24921,0.92917 0,0.53659 -0.0718,1.30208 -0.15952,1.70109 -0.23945,1.08903 0.0312,2.10284 0.74547,2.7926 0.55227,0.53331 0.62999,0.72259 0.46685,1.13722 -0.15637,0.39745 -0.50023,0.23219 -1.53079,-0.73567 z m 0.4183,-6.64948 c -0.15513,-0.15131 -0.21401,0.0466 -0.11558,0.38837 l 0.0982,0.34117 0.05,-0.32443 c 0.0275,-0.17845 0.0128,-0.36075 -0.0327,-0.40511 z m 37.39982,6.19224 0.0411,-1.29584 0.54561,-0.25991 c 0.30009,-0.14295 0.78218,-0.48671 1.07132,-0.76392 0.28913,-0.27721 1.51061,-1.41031 2.71438,-2.51799 1.20378,-1.1077 2.32373,-2.14791 2.4888,-2.31159 0.16507,-0.16369 0.44431,-0.33978 0.62053,-0.39133 0.30334,-0.0887 0.32042,-0.0555 0.32042,0.62386 0,0.93904 -0.29061,1.50285 -1.18739,2.30368 -0.40429,0.36103 -1.92268,1.79347 -3.37419,3.18319 -1.4515,1.38973 -2.78368,2.57153 -2.96039,2.62623 -0.31964,0.099 -0.32107,0.0928 -0.28018,-1.19638 z M 31.063265,175.95743 c 0,-0.0332 0.0625,-0.22073 0.13888,-0.41668 l 0.13889,-0.35628 4.16885,0.002 c 2.30017,10e-4 4.26208,0.0596 4.37681,0.13041 0.17797,0.10979 0.16965,0.16957 -0.0577,0.41457 -0.25693,0.27691 -0.4045,0.28627 -4.51568,0.28627 -2.33754,0 -4.25007,-0.0272 -4.25007,-0.0604 z m 1.06986,-1.74235 c -0.0474,-0.0748 -0.0169,-0.26232 0.0678,-0.41669 0.14935,-0.27219 0.28495,-0.28066 4.49233,-0.28066 4.2175,0 4.33833,0.008 4.33833,0.2729 0,0.1501 -0.12395,0.33761 -0.27545,0.41669 -0.36336,0.18967 -8.50311,0.19699 -8.62302,0.008 z m 79.473895,0.0339 c -0.0468,-0.0457 -0.0851,-1.08271 -0.0851,-2.30454 v -2.22151 l -1.70885,-1.68592 c -1.74834,-1.72488 -1.87205,-1.93305 -1.57151,-2.64459 0.10294,-0.24373 0.39207,-0.006 2.35777,1.93825 l 2.24044,2.21605 -0.072,1.67302 c -0.0543,1.26032 -0.14314,1.8308 -0.36024,2.31271 -0.27121,0.602 -0.6084,0.90384 -0.80044,0.71653 z m 35.08883,-3.4921 c 0,-2.76052 0.0393,-3.4872 0.19559,-3.61369 0.13779,-0.11154 1.25863,-0.14735 3.79308,-0.12118 3.51909,0.0363 3.59993,0.0436 3.70917,0.33179 0.12216,0.32228 -0.23198,0.73397 -2.01058,2.33738 -0.50419,0.45452 -1.43059,1.29831 -2.05868,1.87509 -0.62809,0.57678 -1.53521,1.40808 -2.01581,1.84733 -0.59965,0.54805 -0.98976,0.79865 -1.24331,0.79865 h -0.36946 z m -51.835296,2.19876 c -0.35245,-0.30222 -1.02531,-0.73566 -1.49525,-0.9632 -0.81383,-0.39406 -0.95253,-0.4155 -2.919289,-0.45118 l -2.06487,-0.0375 -0.0378,-3.83654 -0.0378,-3.83655 0.44723,-0.0872 c 0.65356,-0.12748 6.716909,-0.10264 6.928549,0.0284 0.22834,0.14138 0.19164,9.62907 -0.0375,9.69333 -0.0783,0.0219 -0.43078,-0.20734 -0.78323,-0.50955 z m -58.510129,-0.28425 c -1.5173,-0.0601 -2.847,-0.14225 -2.9549,-0.18263 -0.34305,-0.12839 -0.21585,-0.33879 0.55144,-0.91205 0.41119,-0.30721 0.84727,-0.65053 0.96906,-0.76292 0.57514,-0.53076 1.19548,-0.6295 3.95505,-0.6295 3.1496,0 4.01178,0.0837 4.01178,0.38962 0,0.31642 -0.8376,1.72701 -1.18952,2.00323 -0.34421,0.27018 -0.72721,0.27694 -5.34291,0.0942 z m 77.117675,-1.32964 c -0.0522,-0.0509 -0.0949,-0.49462 -0.0949,-0.986 0,-0.54669 -0.0935,-1.0902 -0.24091,-1.40052 -0.1325,-0.27892 -1.18382,-1.42552 -2.33626,-2.548 l -2.09535,-2.04088 0.73421,-1.4315 c 0.40381,-0.78732 0.7697,-1.46275 0.8131,-1.50094 0.0434,-0.0382 0.22689,-0.35071 0.40778,-0.69448 0.61146,-1.16206 1.47092,-2.70762 1.58336,-2.84735 0.0615,-0.0764 0.26793,-0.43976 0.45879,-0.80749 0.52961,-1.02036 1.53413,-2.13664 2.01032,-2.23397 0.53687,-0.10972 25.20336,-0.10912 25.49659,5.3e-4 0.16922,0.0633 0.22525,0.28273 0.22525,0.88198 0,0.8865 -0.33908,1.48212 -1.32263,2.32328 -1.06325,0.90932 -0.63576,0.8694 -9.74514,0.90988 l -8.29088,0.0369 -0.7242,0.74063 c -0.3983,0.40735 -0.78563,0.87612 -0.86073,1.04171 -0.0751,0.1656 -0.2618,0.48859 -0.4149,0.71777 -0.1531,0.22917 -0.37808,0.58856 -0.49996,0.79864 l -0.22159,0.38196 h -2.01379 -2.01378 l -0.90676,-0.48613 c -1.25143,-0.67091 -1.72594,-0.65209 -2.38111,0.0945 -0.412,0.46946 -0.50951,0.69413 -0.50951,1.17392 0,0.49969 0.0816,0.67067 0.51726,1.08331 0.54493,0.51618 1.22852,0.72995 1.78444,0.55801 0.18303,-0.0566 0.61435,-0.31255 0.95849,-0.56877 0.61025,-0.45434 0.65947,-0.46579 1.99366,-0.46372 1.4523,0.002 1.8902,0.12079 1.62073,0.4387 -0.0859,0.10131 -0.55716,0.93424 -1.04729,1.85095 -0.49013,0.9167 -1.00771,1.85425 -1.15017,2.08342 -0.14247,0.22918 -0.32387,0.57294 -0.40312,0.76393 -0.0793,0.19097 -0.20704,0.44099 -0.28396,0.55557 -0.0769,0.11459 -0.30591,0.53648 -0.50884,0.93755 -0.39374,0.77814 -0.39343,0.77777 -0.53817,0.6366 z m -55.685405,-1.19219 c -0.0472,-0.17188 -0.0867,-1.51572 -0.0878,-2.98632 l -0.002,-2.67381 2.78918,-2.73266 2.78917,-2.73266 0.75052,-0.0607 c 0.44677,-0.0361 0.885,0.01 1.08282,0.11275 l 0.33229,0.17346 -0.32765,0.25878 c -0.18021,0.14232 -0.44452,0.25877 -0.58735,0.25877 -0.52157,0 -4.05622,2.96415 -5.36933,4.5027 l -0.46282,0.54228 v 2.52213 c 0,2.51921 -4.2e-4,2.52249 -0.35709,2.82497 -0.44065,0.3737 -0.44466,0.37363 -0.54998,-0.01 z m -19.21304,-0.76381 c -2.66769,-0.0314 -3.40311,-0.0794 -3.46065,-0.22563 -0.0885,-0.22506 0.47631,-1.19815 0.69549,-1.19815 0.0859,0 0.33996,0.17188 0.56463,0.38196 l 0.40847,0.38196 3.44424,0.0379 c 1.89434,0.0208 3.54037,0.0724 3.65785,0.1145 0.17138,0.0615 0.14715,0.12948 -0.12258,0.34408 -0.25089,0.19961 -0.52185,0.25933 -1.06803,0.23538 -0.40252,-0.0176 -2.25626,-0.05 -4.11942,-0.072 z m 120.022395,-0.30409 c -0.0465,-0.0734 0.0614,-0.21475 0.23981,-0.31407 0.24129,-0.13433 1.41882,-0.19137 4.59654,-0.22265 l 4.27214,-0.0421 0.46281,-0.4366 c 0.25455,-0.24013 0.46282,-0.48684 0.46282,-0.54825 0,-0.18859 -0.38206,-0.12373 -0.56962,0.0967 -0.14591,0.17147 -0.60892,0.20574 -2.61632,0.19364 -1.34148,-0.008 -2.99457,-0.055 -3.67355,-0.10418 l -1.23449,-0.0895 0.28932,-0.34724 0.28932,-0.34724 h 2.8783 2.8783 l 0.73798,-0.64713 c 1.0707,-0.93889 1.85476,-1.14517 4.02199,-1.05811 1.32422,0.0532 1.77217,0.12064 1.94944,0.29354 0.12658,0.12347 0.18247,0.27098 0.1242,0.32781 -0.0583,0.0568 -0.91955,0.13694 -1.91398,0.17802 -1.9501,0.0805 -2.25015,0.1741 -2.74869,0.85698 l -0.31961,0.4378 0.41652,-0.1045 c 0.65551,-0.16448 3.19341,-0.25603 3.19341,-0.1152 0,0.12576 -0.39559,0.43828 -1.37711,1.08794 -0.28696,0.18994 -0.59302,0.48481 -0.68013,0.65526 l -0.15838,0.30992 -5.71821,0.0363 c -3.54651,0.0225 -5.75035,-0.0144 -5.80281,-0.0972 z M 36.425365,167.53363 c -0.16133,-0.22465 -0.17704,-0.38833 -0.0669,-0.69659 0.17047,-0.47697 0.1713,-0.47713 0.74016,-0.13908 0.39233,0.23314 0.87182,0.27558 4.11853,0.36448 3.63832,0.0996 3.67408,0.10353 3.63132,0.3959 -0.0427,0.29226 -0.0848,0.29564 -4.12773,0.3321 -4.01781,0.0362 -4.08798,0.032 -4.29542,-0.25681 z m 1.12795,-1.50476 c -0.33263,-0.35849 -0.24313,-0.90176 0.15774,-0.95742 0.17092,-0.0237 0.50417,0.0544 0.74055,0.17362 0.35455,0.17882 1.03007,0.21677 3.85904,0.21677 2.92968,0 3.44129,0.0306 3.51191,0.21011 0.0455,0.11556 0.004,0.30307 -0.0931,0.41668 -0.1477,0.17358 -0.79499,0.20658 -4.05239,0.20658 -3.6402,0 -3.89169,-0.0163 -4.12374,-0.26634 z M 146.7632,165.87244 c -0.0505,-0.0797 -0.0144,-0.236 0.0802,-0.34724 0.1422,-0.16711 0.78466,-0.20226 3.69735,-0.20226 2.91269,0 3.55514,0.0351 3.69733,0.20226 0.37779,0.44398 0.0154,0.49222 -3.69733,0.49222 -2.40665,0 -3.71759,-0.0503 -3.77758,-0.14498 z m 15.81939,0.0197 c -0.0437,-0.0689 0.16077,-0.26351 0.45431,-0.43244 0.50567,-0.29099 0.58449,-0.29778 1.50035,-0.12923 0.85132,0.15667 1.02546,0.15053 1.45975,-0.0515 0.27121,-0.12614 0.4931,-0.27952 0.4931,-0.34084 0,-0.0613 0.33643,-0.35922 0.74762,-0.662 l 0.74763,-0.5505 4.11635,-0.0408 c 2.38103,-0.0236 4.17165,0.0131 4.2475,0.0871 0.0799,0.078 -0.0538,0.25663 -0.34262,0.45752 -0.46652,0.32454 -0.51689,0.32886 -3.28814,0.28208 -3.80991,-0.0643 -4.03676,-0.0266 -4.94538,0.82317 l -0.73009,0.68274 h -2.19049 c -1.20477,0 -2.22623,-0.0564 -2.26989,-0.1253 z M 38.333515,164.32665 c -0.35313,-0.36969 -0.35333,-0.37677 -0.0223,-0.79672 l 0.26375,-0.33462 0.49751,0.2999 c 0.47528,0.2865 0.65787,0.2999 4.08588,0.2999 h 3.58837 l -0.045,0.38196 -0.0451,0.38197 -4.01533,0.0369 c -3.97935,0.0365 -4.01795,0.0341 -4.30774,-0.26926 z m 108.682755,0.20381 c -0.22178,-0.0417 -0.32041,-0.15876 -0.32041,-0.38041 0,-0.24753 0.10102,-0.33992 0.44501,-0.40702 0.75734,-0.14774 6.66982,-0.0994 6.96938,0.057 0.37765,0.19712 0.35093,0.63746 -0.0449,0.74094 -0.35714,0.0934 -6.54531,0.0841 -7.04903,-0.0104 z m 17.34171,-0.25385 c 0.0997,-0.11713 0.60414,-0.53754 1.12106,-0.93422 0.51693,-0.39668 0.9719,-0.76278 1.01106,-0.81354 0.0392,-0.0508 0.32753,-0.21254 0.64082,-0.35949 0.53744,-0.25208 0.86533,-0.26404 5.80299,-0.21163 4.92392,0.0523 5.23337,0.0703 5.23337,0.30561 0,0.14786 -0.19794,0.34168 -0.48433,0.47424 -0.4139,0.19156 -1.13739,0.22416 -4.97489,0.22416 -4.19399,0 -5.11538,0.0677 -5.36063,0.39366 -0.0407,0.0542 -0.35799,0.33153 -0.70495,0.61634 -0.58549,0.4806 -0.69683,0.51784 -1.54829,0.51784 -0.80823,0 -0.89586,-0.0254 -0.73621,-0.21297 z M 39.272825,162.84577 c -0.19845,-0.21387 -0.2102,-0.33112 -0.0731,-0.72919 0.0898,-0.26089 0.23715,-0.5681 0.32734,-0.68269 0.0902,-0.11459 0.25157,-0.37917 0.35862,-0.58796 0.10705,-0.20879 0.30389,-0.49399 0.43741,-0.63377 0.39953,-0.41828 0.60608,-0.87826 0.45885,-1.02187 -0.0799,-0.078 -4.99297,-0.1604 -12.2244,-0.20511 -12.91834,-0.0799 -12.66012,-0.0653 -13.57087,-0.76409 -0.99642,-0.76446 -1.50321,-1.92166 -1.46983,-3.35617 0.02,-0.8614 0.11244,-1.12509 0.69009,-1.96945 0.7323,-1.07042 1.30422,-1.38269 2.64103,-1.44201 1.07371,-0.0476 1.11409,-0.0382 1.11409,0.2614 0,0.3624 -0.80092,1.14828 -1.4658,1.43828 -0.25117,0.10955 -0.7388,0.23154 -1.08361,0.27108 -0.41696,0.0478 -0.75084,0.19274 -0.99684,0.43267 -0.32842,0.32034 -0.36988,0.47074 -0.36988,1.34191 0,0.88965 0.0352,1.01072 0.3782,1.29843 0.8361,0.70146 2.15307,0.51852 2.62857,-0.36513 0.13683,-0.25429 0.29672,-0.79735 0.3553,-1.20679 0.10269,-0.71767 0.15878,-0.79383 1.55996,-2.11815 l 1.45343,-1.37371 h 1.26689 c 1.65974,0 1.74158,0.16217 0.60044,1.18992 -0.69843,0.62902 -0.92502,0.75452 -1.3625,0.75456 -0.75825,8e-5 -1.17604,0.19501 -1.61156,0.75194 -0.74994,0.95898 -0.26699,2.24916 1.00277,2.67889 0.49188,0.16646 0.64066,0.16231 1.16457,-0.0324 0.5213,-0.1938 0.61244,-0.29081 0.6899,-0.73437 0.25706,-1.47204 0.32025,-1.57528 1.90677,-3.11536 l 1.53815,-1.49312 h 1.51726 c 2.10915,0 2.11844,0.15826 0.10688,1.82126 -0.10879,0.0899 -0.61941,0.14931 -1.18637,0.13795 -0.95484,-0.0192 -1.01519,-5.3e-4 -1.48225,0.45493 -0.40084,0.39096 -0.48688,0.57875 -0.48688,1.06268 0,0.63514 0.38798,1.38357 0.89779,1.73185 0.16765,0.11453 0.61096,0.20824 0.98515,0.20824 1.06506,0 1.53477,-0.61171 1.53477,-1.99877 0,-0.7156 0.0199,-0.75043 0.968,-1.69242 0.5324,-0.52899 1.17814,-1.13367 1.43497,-1.34376 l 0.46697,-0.38196 h 10.49854 c 7.97566,0 10.5396,0.0401 10.66942,0.16668 0.1187,0.11576 0.16946,0.82636 0.1662,2.32649 -0.005,2.13467 -0.01,2.16791 -0.42237,2.85429 -0.22972,0.38196 -0.51407,0.88198 -0.63188,1.11116 -0.11781,0.22918 -0.44108,0.7917 -0.71837,1.25006 -0.27729,0.45835 -0.60057,1.02088 -0.7184,1.25005 -0.24599,0.47846 -0.35147,0.65114 -1.12413,1.84036 l -0.56402,0.8681 h -4.0094 c -3.70827,0 -4.02716,-0.0192 -4.24587,-0.25486 z m -5.62678,-5.40371 c 0.49696,-0.28633 0.60942,-0.63556 0.51458,-1.59814 -0.0566,-0.57462 -0.15012,-0.77588 -0.48019,-1.03349 -0.5808,-0.4533 -1.59182,-0.44719 -2.03439,0.0123 -0.71841,0.74586 -0.42182,2.14105 0.55647,2.61771 0.62651,0.30527 0.91595,0.30559 1.44353,0.002 z m 24.13787,5.31149 c -0.24951,-0.63419 1.38251,-2.613 3.68275,-4.46531 0.99228,-0.79905 1.43764,-0.98728 2.42088,-1.02317 1.30091,-0.0475 1.35285,-0.0348 1.35285,0.32978 0,0.29488 -0.0781,0.33566 -0.77733,0.40605 -1.16799,0.11758 -1.64878,0.46306 -4.72908,3.39827 -0.9019,0.85941 -1.6912,1.56257 -1.75399,1.56257 -0.0628,0 -0.15103,-0.0937 -0.19608,-0.20819 z m 30.7451,0.0209 c -0.61535,-0.43886 -0.12681,-0.5072 3.625859,-0.5072 3.75266,0 4.2412,0.0683 3.62585,0.5072 -0.38055,0.27141 -6.871159,0.27141 -7.251709,0 z m 58.416045,0.0373 c -0.22475,-0.12769 -0.2492,-0.42623 -0.2492,-3.04211 0,-2.68522 0.0193,-2.9065 0.25973,-2.98094 0.52541,-0.16265 1.05213,-0.86648 1.11527,-1.49033 0.0618,-0.61098 -0.0259,-0.83565 -0.63587,-1.62847 l -0.32888,-0.42746 0.71372,-0.69614 c 0.39254,-0.38287 0.77347,-0.69614 0.84651,-0.69614 0.073,0 0.1759,0.33675 0.22862,0.74832 0.12226,0.95441 0.86766,1.89069 1.50524,1.89069 0.64284,0 1.07869,-0.22123 1.50181,-0.76229 0.34324,-0.43893 0.43637,-0.76824 0.48163,-1.7031 0.0152,-0.31326 0.27576,-0.1836 1.01702,0.50599 1.04826,0.97518 1.12247,1.38082 1.12523,6.15105 0.002,3.31168 -0.0288,3.87467 -0.22155,4.06268 -0.19136,0.18663 -0.72277,0.21765 -3.66693,0.21404 -2.07265,-0.003 -3.54233,-0.0606 -3.69235,-0.14579 z m -58.555975,-1.64309 c -0.13609,-0.21478 0.0676,-0.53671 0.39352,-0.62197 0.17081,-0.0447 1.7585,-0.0821 3.528199,-0.0831 3.00327,-0.002 3.23427,0.016 3.46727,0.26714 0.13729,0.14798 0.20752,0.33548 0.15607,0.41669 -0.11759,0.18557 -7.427889,0.2062 -7.545059,0.0213 z m 80.036735,0.008 c -0.0411,-0.0649 0.0673,-0.23694 0.24081,-0.38235 0.17355,-0.14542 0.98842,-0.8212 1.8108,-1.50172 0.82239,-0.68052 1.55933,-1.30537 1.63765,-1.38855 0.0783,-0.0832 0.71915,-0.61897 1.42405,-1.19065 0.7049,-0.57168 1.69143,-1.39984 2.19226,-1.84036 0.50086,-0.44052 0.95775,-0.80094 1.01532,-0.80094 0.0576,0 0.13316,0.38381 0.16795,0.85292 0.0587,0.79216 0.10656,0.89234 0.67123,1.40606 0.57664,0.52463 0.64209,0.54856 1.27042,0.46457 0.46957,-0.0628 0.78706,-0.21008 1.09036,-0.50591 0.38717,-0.37764 0.42789,-0.50264 0.42789,-1.31363 0,-1.20074 -0.28776,-1.50072 -1.53336,-1.59849 -1.02459,-0.0804 -1.15143,-0.26848 -0.5949,-0.88202 0.23919,-0.26369 0.5442,-0.42011 0.91337,-0.4684 0.51542,-0.0674 0.61135,-0.0202 1.36848,0.67368 1.30326,1.19438 1.62646,1.70407 1.62646,2.56492 0,1.05477 0.38786,1.46568 1.46573,1.55286 l 0.80197,0.0649 -0.88464,0.8517 c -1.03802,0.99938 -2.69631,2.42908 -3.58574,3.09148 l -0.62832,0.46793 h -5.41152 c -2.97633,0 -5.44516,-0.0531 -5.48627,-0.11797 z M 57.550535,160.21763 c 0,-0.50352 0.21365,-1.21376 0.45096,-1.49915 0.10443,-0.12557 0.81326,-0.84897 1.57519,-1.60754 l 1.38532,-1.37921 2.1036,0.0385 c 2.04014,0.0373 2.10492,0.0476 2.14786,0.3418 0.042,0.28785 0.005,0.29936 -0.73084,0.22532 -1.48613,-0.1496 -3.04229,0.7287 -5.14735,2.90519 -1.37155,1.41809 -1.78474,1.64384 -1.78474,0.97514 z m 30.80855,-0.80371 c -0.0464,-0.11789 -0.0391,-0.25852 0.0161,-0.31252 0.0552,-0.054 1.68121,-0.11666 3.613309,-0.13925 2.97574,-0.0348 3.55646,-0.009 3.79771,0.17098 0.55647,0.4143 -0.0243,0.4908 -3.74259,0.49299 -3.114849,0.002 -3.611549,-0.0268 -3.684509,-0.2122 z m 0.002,-1.52186 c -0.0451,-0.11459 -0.0447,-0.30314 10e-4,-0.419 0.0717,-0.1822 0.58801,-0.20565 3.822669,-0.17362 3.53085,0.035 3.74267,0.0516 3.7913,0.29819 0.0283,0.14362 -0.0349,0.31455 -0.14052,0.37983 -0.10561,0.0653 -1.8121,0.11964 -3.7922,0.12081 -3.070119,0.002 -3.612209,-0.0285 -3.682099,-0.20621 z m -30.57336,-0.43984 c -0.0522,-0.0509 -0.0949,-0.82552 -0.0949,-1.72132 0,-1.35706 0.0376,-1.6428 0.22525,-1.71304 0.29386,-0.10998 6.66068,-0.10998 6.95454,0 0.33658,0.12598 0.2734,0.56518 -0.0952,0.66152 -0.17623,0.046 -1.05025,0.0846 -1.94227,0.0856 l -1.62186,0.002 -0.87022,0.74957 c -0.47862,0.41226 -1.18924,1.03729 -1.57914,1.38895 -0.7293,0.65776 -0.81387,0.70513 -0.97621,0.54679 z m 30.73882,-1.09616 c -0.22225,-0.16386 -0.24902,-0.25815 -0.12688,-0.44699 0.13983,-0.21622 0.50245,-0.23933 3.755049,-0.23933 3.20502,0 3.61672,0.0254 3.74995,0.23142 0.10861,0.16794 0.0983,0.29177 -0.0375,0.45141 -0.27151,0.31909 -6.908239,0.32225 -7.340599,0.004 z m 0.0324,-1.54599 c -0.1463,-0.0373 -0.24921,-0.19554 -0.24921,-0.38321 0,-0.24694 0.10128,-0.33945 0.44502,-0.4065 0.75733,-0.14774 6.669809,-0.0994 6.969379,0.057 0.3323,0.17346 0.3629,0.62714 0.0502,0.74418 -0.25658,0.096 -6.834659,0.0856 -7.215389,-0.0114 z m 27.446945,-1.01786 c -0.0493,-0.0777 0.18727,-0.26387 0.52562,-0.41364 0.59422,-0.26302 0.99866,-0.27239 11.87895,-0.27534 10.9594,-0.003 11.27241,0.004 11.58345,0.26737 0.17582,0.14873 0.27797,0.33623 0.22699,0.41668 -0.12712,0.20062 -24.08792,0.2055 -24.21501,0.005 z m -26.743925,-0.50404 c -0.21544,-0.21013 -0.0765,-0.72671 0.29381,-1.09251 0.21539,-0.21275 0.73519,-0.54156 1.15512,-0.73069 0.65405,-0.29457 0.91158,-0.3346 1.796489,-0.27921 0.87927,0.055 1.12849,0.13157 1.67487,0.51428 0.70415,0.49322 1.01886,0.94448 0.9395,1.34716 -0.0481,0.24396 -0.24125,0.26382 -2.90674,0.29884 -1.570389,0.0206 -2.899259,-0.005 -2.953049,-0.0579 z m -30.85732,-0.33659 c 4e-5,-0.11993 0.18838,-0.42377 0.41853,-0.67521 1.3508,-1.4757 4.08447,-1.5015 5.22012,-0.0493 0.67033,0.85719 0.6112,0.87727 -2.68375,0.91168 -2.60364,0.0272 -2.95497,0.005 -2.9549,-0.18719 z m 125.224775,0.155 c -0.81957,-0.19063 -2.18708,-1.19687 -2.18708,-1.60931 0,-0.32112 0.84893,-0.24743 1.65326,0.1435 0.86683,0.42132 1.54984,1.08061 1.43141,1.38167 -0.0919,0.23351 -0.2084,0.24444 -0.89759,0.0841 z m -64.35376,-0.98978 c -0.2852,-0.4501 0.18464,-0.47532 7.99576,-0.42928 5.29303,0.0312 8.16052,-0.005 9.02174,-0.11431 1.10209,-0.13971 1.31958,-0.13125 1.71182,0.0666 1.05902,0.53415 0.7201,0.55613 -9.14839,0.59328 -6.7502,0.0254 -9.51239,-0.008 -9.58093,-0.11627 z"
                style="fill:#000000;stroke-width:0.14063892"/>
    </g>
</svg>
